<svg width="1728" height="747" viewBox="0 0 1728 747" fill="none" xmlns="http://www.w3.org/2000/svg">
<path style="mix-blend-mode:screen" opacity="0.61" d="M389.283 541.735C120.373 810.646 120.373 1246.64 389.284 1515.55C658.194 1784.46 1094.18 1784.46 1363.09 1515.55C1632.01 1246.64 1632 810.646 1363.09 541.736C1094.18 272.825 658.194 272.825 389.283 541.735Z" fill="url(#paint0_radial_11_19473)"/>
<path style="mix-blend-mode:screen" d="M386.001 487.358C117.091 756.268 117.091 1192.26 386.001 1461.17C654.912 1730.08 1090.9 1730.08 1359.81 1461.17C1628.72 1192.26 1628.72 756.268 1359.81 487.358C1090.9 218.447 654.912 218.447 386.001 487.358Z" fill="url(#paint1_radial_11_19473)"/>
<path d="M215.54 865.799C232.779 721.403 297.8 586.916 400.264 483.725C502.728 380.534 636.752 314.564 781.022 296.305C925.292 278.046 1071.53 308.547 1196.47 382.958C1321.41 457.368 1417.88 571.416 1470.55 706.964C1523.22 842.512 1529.06 991.778 1487.13 1131.03C1445.21 1270.27 1357.94 1391.51 1239.19 1475.44C1120.44 1559.38 977.031 1601.21 831.776 1594.27C686.521 1587.34 547.755 1532.03 437.546 1437.16C356.495 1367.45 293.846 1278.87 255.128 1179.23C216.411 1079.58 202.815 971.94 215.54 865.799Z" fill="url(#paint2_radial_11_19473)"/>
<g style="mix-blend-mode:overlay" opacity="0.5">
<path d="M215.54 865.799C224.056 793.395 244.678 722.936 276.545 657.367L283.713 654.113C283.713 654.113 250.16 719.49 254.227 732.402C258.294 745.315 282.594 808.658 294.389 828.078C306.183 847.497 290.728 977.539 304.556 993.247C318.384 1008.96 311.419 1057.56 297.744 1128.88C284.069 1200.21 323.569 1224.05 349.852 1261.06C376.135 1298.07 365.103 1298.98 386.709 1348.55C408.315 1398.11 475.775 1427.19 497.89 1453.78C520.004 1480.37 579.229 1462.78 618.475 1486.21C657.721 1509.65 856.443 1510.82 919.939 1535.83C944.544 1545.54 964.676 1526.32 1000.36 1516.82C1036.05 1507.31 1038.39 1509.4 1072.86 1503.45C1107.32 1497.5 1110.73 1489.32 1167.87 1470.51C1225.01 1451.7 1208.24 1382.91 1209.1 1381.49C1209.96 1380.07 1229.69 1350.58 1230.45 1349.21C1231.21 1347.84 1250.23 1352.67 1266.04 1341.63C1281.85 1330.6 1266.04 1341.63 1286.68 1273.97C1307.32 1206.31 1433.85 1090.6 1448.7 1067.01C1463.54 1043.42 1446.56 1022.63 1446.15 1011.09C1445.75 999.551 1438.99 974.488 1451.24 955.17C1463.49 935.852 1470.56 936.31 1482.65 903.825C1494.75 871.34 1467.86 875.254 1445.34 856.801C1422.82 838.347 1436.7 813.386 1436.7 813.386C1436.7 813.386 1436.24 779.986 1435.02 732.758C1433.8 685.53 1408.28 674.499 1401.82 653.3C1395.37 632.101 1388.71 633.727 1382.86 622.391C1370.79 602.339 1362.6 580.196 1358.71 557.116C1353.63 524.021 1328.21 539.425 1314.23 524.326C1303.3 512.633 1282.51 459.661 1273.56 436.683C1341.63 490.811 1398.18 558.007 1439.89 634.317C1481.6 710.628 1507.62 794.51 1516.43 881.027C1525.23 967.545 1516.65 1054.95 1491.17 1138.1C1465.69 1221.25 1423.84 1298.46 1368.08 1365.19C1312.31 1431.93 1243.76 1486.83 1166.47 1526.68C1089.17 1566.52 1004.68 1590.5 917.971 1597.21C831.266 1603.91 744.095 1593.21 661.588 1565.72C579.082 1538.24 502.907 1494.52 437.546 1437.16C356.495 1367.45 293.846 1278.87 255.128 1179.23C216.411 1079.58 202.815 971.94 215.54 865.799Z" fill="#43E0F7"/>
</g>
<path d="M437.546 1437.16C440.901 1438.73 549.693 1489.01 561.436 1493.89C573.179 1498.77 612.273 1500.96 617.102 1510.92C621.932 1520.89 650.045 1538.12 656.247 1540.97C662.449 1543.81 741.196 1576.55 747.754 1574.57C754.312 1572.59 755.684 1565.62 756.803 1561.91C757.921 1558.2 771.139 1552.2 786.136 1554.34C801.133 1556.47 829.957 1554.34 824.874 1564.5C821.182 1571.17 816.226 1577.06 810.283 1581.84C810.283 1581.84 837.176 1586.26 838.447 1587.79C839.718 1589.31 859.697 1588.3 862.188 1586.52C864.679 1584.74 893.554 1574.26 896.3 1574.82C899.045 1575.38 905.349 1582.75 909.619 1581.84C913.889 1580.92 918.922 1585.75 926.141 1584.18C933.36 1582.6 946.476 1587.02 950.797 1581.84C955.118 1576.65 966.811 1577.06 970.166 1571.67C973.532 1567.19 977.541 1563.24 982.062 1559.93C982.062 1559.93 1021.21 1565.01 1035.39 1559.93C1049.57 1554.84 1038.08 1561.3 1049.62 1554.84C1061.16 1548.39 1088.36 1536.75 1088.36 1536.75L1131.01 1512.85L1139.1 1527.39L1155.82 1519.36C1155.82 1519.36 1166.5 1509.45 1169.85 1505.94C1173.21 1502.43 1195.78 1488.81 1196.39 1487.13C1197 1485.45 1214.54 1479.96 1230.91 1474.01C1242.98 1469.33 1253.2 1460.86 1260.04 1449.87C1261.36 1446.51 1271.58 1432.43 1276.66 1422.52C1281.75 1412.6 1285.66 1408.79 1297 1402.18C1305.12 1398.21 1312.83 1393.46 1320.03 1388C1327.19 1382.05 1355.31 1366.19 1359.48 1357.14C1363.65 1348.09 1381.54 1333.2 1383.62 1327.55C1385.71 1321.91 1386.52 1337.16 1385.66 1321.91C1384.79 1306.66 1373.46 1288.71 1373.46 1288.71C1373.46 1288.71 1369.34 1262.28 1380.07 1252.72C1390.79 1243.16 1407.01 1252.72 1407.01 1252.72C1407.01 1252.72 1424.7 1221.51 1420.43 1217.9C1416.16 1214.29 1396.64 1222.98 1399.64 1206.71C1402.64 1190.44 1406.3 1190.8 1407.01 1183.07C1407.72 1175.35 1410.06 1170.36 1418.6 1163.5L1427.19 1156.69C1427.19 1156.69 1473.66 1124.56 1474.57 1118.61C1475.49 1112.66 1491.65 1086.23 1498.36 1070.37C1505.07 1054.51 1497.55 1037.22 1498.36 1028.73C1499.18 1020.24 1475.13 966.507 1479.96 960.356C1487.35 947.74 1493.51 934.444 1498.36 920.652C1501.77 910.942 1492.72 843.634 1495.57 830.264C1498.41 816.894 1482.15 743.18 1474.57 737.283C1467 731.386 1469.49 706.78 1469.49 706.78L1471.06 708.255C1523.38 843.846 1528.91 993.028 1486.77 1132.12C1444.63 1271.21 1357.23 1392.24 1238.46 1475.99C1119.68 1559.74 976.328 1601.42 831.163 1594.4C685.997 1587.38 547.335 1532.08 437.19 1437.26L437.546 1437.16Z" fill="#43E0F7"/>
<g style="mix-blend-mode:multiply" opacity="0.2">
<path d="M1331.46 1011.49C1331.46 1011.49 1306.91 1001.68 1289.57 1003.56C1272.24 1005.44 1277.98 1005.8 1247.58 1012.81C1217.18 1019.83 1211.38 1031.47 1192.37 1021.45C1173.36 1011.44 1166.34 1014.13 1173.36 1011.29C1180.37 1008.44 1219.87 977.633 1179.97 977.023C1140.06 976.413 1149.11 981.039 1127.66 975.345C1106.2 969.651 1114.84 953.434 1105.44 939.505C1096.04 925.576 1096.65 917.899 1092.07 912.816C1087.49 907.732 1114.64 921.763 1109.56 894.006C1104.47 866.249 1104.47 831.73 1092.07 827.358C1079.67 822.986 1062.99 825.528 1058.31 812.412C1053.64 799.296 1052.06 799.957 1049.47 789.891C1046.88 779.826 1047.99 771.997 1030.91 766.608C1013.83 761.219 994.717 758.728 983.939 749.374C973.162 740.02 953.844 722.075 953.844 722.075C958.47 735.127 963.869 747.893 970.01 760.304C975.704 769.658 1002.44 791.874 1010.68 808.294C1018.92 824.715 1038.64 831.578 1045.3 845.914C1051.96 860.25 1076.31 876.06 1070.72 888.515C1065.13 900.97 1059.03 903.767 1056.03 908.85C1053.03 913.934 1082.77 936.404 1058.42 935.54C1034.06 934.675 1028.73 951.858 1037.27 957.501C1045.81 963.144 1071.28 965.686 1067.77 971.837C1064.26 977.989 1083.53 994.257 1083.58 1001.73C1083.63 1009.2 1089.78 1017.69 1101.98 1020.23C1114.18 1022.78 1107.88 1032.49 1128.01 1034.42C1148.14 1036.35 1198.57 1040.87 1208.89 1041.59C1219.21 1042.3 1245.6 1034.42 1245.6 1034.42C1248.46 1029.49 1252.49 1025.35 1257.33 1022.36C1262.17 1019.36 1267.67 1017.6 1273.35 1017.23C1293.44 1015.56 1331.46 1011.49 1331.46 1011.49Z" fill="#190024"/>
</g>
<defs>
<radialGradient id="paint0_radial_11_19473" cx="0" cy="0" r="1" gradientUnits="userSpaceOnUse" gradientTransform="translate(868.566 1019.38) rotate(-173.125) scale(691.509 691.509)">
<stop offset="0.69" stop-color="#00B1FF"/>
<stop offset="0.88" stop-color="#004361"/>
<stop offset="1"/>
</radialGradient>
<radialGradient id="paint1_radial_11_19473" cx="0" cy="0" r="1" gradientUnits="userSpaceOnUse" gradientTransform="translate(865.321 964.748) rotate(-173.125) scale(691.509 691.509)">
<stop offset="0.81" stop-color="#00B1FF"/>
<stop offset="0.93" stop-color="#004361"/>
<stop offset="1"/>
</radialGradient>
<radialGradient id="paint2_radial_11_19473" cx="0" cy="0" r="1" gradientUnits="userSpaceOnUse" gradientTransform="translate(949.323 712.728) rotate(-180) scale(968.904 968.904)">
<stop stop-color="#312E9C"/>
<stop offset="1" stop-color="#2266C5"/>
</radialGradient>
</defs>
</svg>
