<svg xmlns="http://www.w3.org/2000/svg" width="60" height="72" viewBox="0 0 60 72" fill="none">
  <path d="M30 12.5581L31.7869 10.7833C31.3127 10.3129 30.6701 10.0487 30 10.0487C29.3299 10.0487 28.6873 10.3129 28.2131 10.7833L30 12.5581ZM30 39.3488L28.2131 41.1237C28.6873 41.5941 29.3299 41.8583 30 41.8583C30.6701 41.8583 31.3127 41.5941 31.7869 41.1237L30 39.3488ZM21.4703 17.4809C21.0236 17.9571 20.7805 18.5868 20.792 19.2375C20.8036 19.8882 21.069 20.509 21.5322 20.9692C21.9955 21.4293 22.6205 21.6929 23.2756 21.7044C23.9307 21.7159 24.5647 21.4744 25.044 21.0307L21.4703 17.4809ZM34.956 21.0307C35.1875 21.2775 35.4666 21.4754 35.7768 21.6127C36.087 21.7499 36.4218 21.8238 36.7613 21.8297C37.1008 21.8357 37.4381 21.7736 37.7529 21.6473C38.0678 21.521 38.3538 21.333 38.5939 21.0945C38.834 20.856 39.0233 20.5719 39.1505 20.2591C39.2776 19.9464 39.3401 19.6114 39.3341 19.2742C39.3281 18.9369 39.2538 18.6043 39.1156 18.2962C38.9774 17.9882 38.7781 17.7109 38.5297 17.4809L34.956 21.0307ZM25.044 30.8763C24.8125 30.6295 24.5334 30.4316 24.2232 30.2943C23.913 30.157 23.5782 30.0832 23.2387 30.0773C22.8992 30.0713 22.5619 30.1334 22.2471 30.2597C21.9322 30.386 21.6462 30.574 21.4061 30.8125C21.166 31.051 20.9767 31.3351 20.8495 31.6479C20.7224 31.9606 20.6599 32.2956 20.6659 32.6328C20.6719 32.9701 20.7462 33.3026 20.8844 33.6107C21.0226 33.9188 21.2219 34.1961 21.4703 34.426L25.044 30.8763ZM38.5297 34.426C38.7781 34.1961 38.9774 33.9188 39.1156 33.6107C39.2538 33.3026 39.3281 32.9701 39.3341 32.6328C39.3401 32.2956 39.2776 31.9606 39.1505 31.6479C39.0233 31.3351 38.834 31.051 38.5939 30.8125C38.3538 30.574 38.0678 30.386 37.7529 30.2597C37.4381 30.1334 37.1008 30.0713 36.7613 30.0773C36.4218 30.0832 36.087 30.157 35.7768 30.2943C35.4666 30.4316 35.1875 30.6295 34.956 30.8763L38.5297 34.426ZM0.5 29.3023V42.6977H5.55714V29.3023H0.5ZM59.5 42.6977V29.3023H54.4429V42.6977H59.5ZM27.4714 12.5581V39.3488H32.5286V12.5581H27.4714ZM28.2131 10.7833L21.4703 17.4809L25.044 21.0307L31.7869 14.333L28.2131 10.7833ZM28.2131 14.333L34.956 21.0307L38.5297 17.4809L31.7869 10.7833L28.2131 14.333ZM31.7869 37.574L25.044 30.8763L21.4703 34.426L28.2131 41.1237L31.7869 37.574ZM31.7869 41.1237L38.5297 34.426L34.956 30.8763L28.2131 37.574L31.7869 41.1237ZM59.5 29.3023C59.5 21.5309 56.392 14.0777 50.8597 8.58245C45.3273 3.0872 37.8239 0 30 0V5.02326C36.4826 5.02326 42.6998 7.58122 47.2837 12.1344C51.8676 16.6876 54.4429 22.8631 54.4429 29.3023H59.5ZM30 72C33.874 72 37.7101 71.2421 41.2892 69.7695C44.8683 68.2969 48.1203 66.1385 50.8597 63.4175C53.599 60.6966 55.7719 57.4663 57.2544 53.9112C58.737 50.3561 59.5 46.5457 59.5 42.6977H54.4429C54.4429 49.1369 51.8676 55.3124 47.2837 59.8656C42.6998 64.4188 36.4826 66.9767 30 66.9767V72ZM0.5 42.6977C0.5 50.4691 3.60803 57.9223 9.14035 63.4175C14.6727 68.9128 22.1761 72 30 72V66.9767C23.5174 66.9767 17.3002 64.4188 12.7163 59.8656C8.13237 55.3124 5.55714 49.1369 5.55714 42.6977H0.5ZM5.55714 29.3023C5.55714 22.8631 8.13237 16.6876 12.7163 12.1344C17.3002 7.58122 23.5174 5.02326 30 5.02326V0C22.1761 0 14.6727 3.0872 9.14035 8.58245C3.60803 14.0777 0.5 21.5309 0.5 29.3023H5.55714Z" fill="#CEB7FF"/>
</svg>