<svg width="97" height="151" viewBox="0 0 97 151" fill="none" xmlns="http://www.w3.org/2000/svg">
<g opacity="0.2">
<path d="M46.4955 151C69.636 151 88.3951 148.549 88.3951 145.525C88.3951 142.501 69.636 140.05 46.4955 140.05C23.355 140.05 4.59586 142.501 4.59586 145.525C4.59586 148.549 23.355 151 46.4955 151Z" fill="#371A45"/>
</g>
<path d="M67.1718 67.6638H35.4406C30.5604 67.6638 26.6043 71.62 26.6043 76.5002V107.431C26.6043 112.311 30.5604 116.267 35.4406 116.267H67.1718C72.052 116.267 76.0082 112.311 76.0082 107.431V76.5002C76.0082 71.62 72.052 67.6638 67.1718 67.6638Z" fill="white"/>
<path d="M67.1713 117.152H35.4406C30.0806 117.152 25.7197 112.791 25.7197 107.431V76.5009C25.7197 71.1404 30.0806 66.7795 35.4406 66.7795H67.1713C72.5318 66.7795 76.8922 71.1404 76.8922 76.5009V107.431C76.8922 112.791 72.5318 117.152 67.1713 117.152ZM35.4406 68.5496C31.056 68.5496 27.4888 72.1163 27.4888 76.5019V107.432C27.4888 111.816 31.0555 115.384 35.4406 115.384H67.1713C71.5565 115.384 75.1236 111.817 75.1236 107.432V76.5009C75.1236 72.1158 71.5569 68.5486 67.1713 68.5486L35.4406 68.5496Z" fill="#371A45"/>
<path d="M82.0183 99.2919C82.0183 99.2919 84.1983 106.092 77.0321 107.551C75.7409 107.816 74.5068 107.708 73.4035 107.305C68.6479 105.552 66.3477 98.2195 72.5951 90.8826C72.9247 90.4936 73.2785 90.1065 73.6565 89.7175C73.6735 89.7028 73.6894 89.6869 73.7041 89.6699C73.7041 89.6699 73.3712 89.1216 72.3112 88.3474C71.6454 87.8633 70.6905 87.2883 69.3527 86.7067L66.7847 78.8462L66.78 78.8329L66.3248 77.4395L63.5476 68.9531C63.5476 68.9531 66.0923 69.8177 69.3451 71.2905C70.4199 71.777 71.5741 72.332 72.7392 72.9445C73.0597 73.1124 73.3826 73.2869 73.7055 73.4638C73.7055 73.4638 74.4108 73.8443 75.5164 74.53C81.1689 78.0491 97.2357 89.6052 82.0183 99.2919Z" fill="white"/>
<g opacity="0.2">
<path d="M72.7378 72.9435C71.2873 74.6993 69.076 76.2358 66.3234 77.4385L63.5462 68.9521C63.5462 68.9521 66.0909 69.8167 69.3437 71.2895C70.4185 71.776 71.5707 72.331 72.7378 72.9435Z" fill="#371A45"/>
</g>
<path d="M44.7112 67.6628L36.2733 76.9015C33.7481 75.6408 31.7645 74.0777 30.5305 72.32C34.8354 69.6958 39.6886 68.1019 44.7112 67.6628Z" fill="#D8D8D8"/>
<path d="M68.9499 76.0899C64.7779 78.6018 58.6745 80.1849 51.8731 80.1849C44.5628 80.1849 38.0576 78.3564 33.8917 75.5131C34.0135 75.2544 34.1347 74.9975 34.2612 74.7388C34.2612 74.7388 31.9348 61.3656 43.5746 56.8193C46.3055 56.2629 49.086 55.9858 51.8731 55.9923C54.9 55.9923 57.7881 56.3066 60.4303 56.8768C70.4403 61.4698 68.3113 74.7388 68.3113 74.7388C68.53 75.1901 68.7445 75.641 68.9499 76.0899Z" fill="#D8D8D8"/>
<g opacity="0.2">
<path d="M68.5847 80.3099L69.3513 86.7043C72.8229 88.2118 73.7046 89.6675 73.7046 89.6675C73.6884 89.6841 73.6718 89.7008 73.657 89.715C74.5882 88.947 75.8374 88.0686 77.149 87.575C77.149 87.575 74.6761 86.291 73.9243 85.2976C71.507 82.1199 71.4566 80.9733 70.5316 79.665C70.2325 79.2465 68.2451 79.607 68.5847 80.3099Z" fill="#371A45"/>
</g>
<g opacity="0.2">
<path d="M77.0325 107.553C84.1141 106.109 82.0682 99.4514 82.0207 99.293C82.0207 99.293 80.7909 105.883 74.3889 104.075C70.2953 102.917 70.6415 97.1473 71.4228 93.1398C71.3541 92.9812 71.297 92.8178 71.2521 92.6509H71.2497C65.5968 101.055 70.6196 108.86 77.0325 107.553Z" fill="#371A45"/>
</g>
<path d="M75.651 108.58C72.9123 108.58 70.4142 107.094 69.0255 104.535C67.1661 101.111 67.1552 95.4514 72.5047 89.6496C72.0387 89.2159 71.1556 88.5344 69.6271 87.8068C69.5208 87.7578 69.4252 87.6881 69.346 87.6019C69.2668 87.5156 69.2055 87.4145 69.1656 87.3044C69.1258 87.1943 69.1082 87.0773 69.1139 86.9604C69.1196 86.8434 69.1485 86.7287 69.1989 86.623C69.2493 86.5173 69.3201 86.4226 69.4074 86.3445C69.4946 86.2664 69.5965 86.2064 69.7071 86.1679C69.8177 86.1295 69.9349 86.1134 70.0518 86.1206C70.1687 86.1278 70.2829 86.1582 70.388 86.2099C73.4682 87.6765 74.3699 89.0604 74.4626 89.2135L74.8188 89.8022L74.3361 90.2921C69.095 95.6183 68.9594 100.707 70.5792 103.692C71.8679 106.07 74.2729 107.216 76.8537 106.688C78.7407 106.304 80.0618 105.486 80.7814 104.257C81.994 102.186 81.1837 99.5907 81.1756 99.565L80.9673 98.9154L81.5427 98.5487C85.613 95.9574 87.6185 93.0546 87.5043 89.9206C87.209 81.8333 73.4245 74.3199 73.2851 74.2448C68.4011 71.5498 63.3117 69.8116 63.2608 69.7945C63.0407 69.7176 62.8599 69.5569 62.7577 69.3474C62.6554 69.1378 62.6401 68.8964 62.7149 68.6756C62.7897 68.4548 62.9487 68.2724 63.1573 68.1682C63.3658 68.064 63.6071 68.0464 63.8286 68.1191C64.0422 68.1914 69.113 69.922 74.1321 72.6916C74.728 73.0121 88.9377 80.7566 89.272 89.8541C89.4061 93.5121 87.3055 96.8196 83.026 99.6924C83.2519 100.807 83.5016 103.116 82.3079 105.151C81.324 106.832 79.6077 107.932 77.2071 108.422C76.695 108.527 76.1737 108.58 75.651 108.58Z" fill="#371A45"/>
<path d="M82.1515 99.9972C80.8674 100.476 79.505 100.798 78.1268 100.774C78.6176 100.431 79.3043 99.9786 79.8027 99.6434C80.3439 99.2843 80.9017 98.9162 81.4514 98.5872L82.1515 99.9972Z" fill="#371A45"/>
<path d="M86.8019 95.6368C86.7148 95.6366 86.6285 95.6193 86.548 95.5857C86.4676 95.5521 86.3945 95.503 86.3331 95.4411C86.2716 95.3793 86.223 95.3059 86.1899 95.2253C86.1569 95.1446 86.1401 95.0582 86.1404 94.971C86.1442 93.4126 84.7309 91.7406 82.54 90.7124C79.9058 89.476 75.9064 89.1454 72.5808 91.9232C72.5142 91.9811 72.4368 92.0252 72.353 92.0529C72.2691 92.0805 72.1806 92.0911 72.0926 92.0841C72.0046 92.0771 71.9189 92.0527 71.8405 92.0121C71.7621 91.9716 71.6926 91.9158 71.636 91.8481C71.5794 91.7803 71.537 91.702 71.5111 91.6176C71.4851 91.5332 71.4763 91.4445 71.4851 91.3567C71.4939 91.2689 71.5202 91.1837 71.5623 91.1061C71.6044 91.0286 71.6616 90.9602 71.7305 90.905C75.535 87.7278 80.1004 88.1025 83.1035 89.5116C85.7595 90.7581 87.472 92.9024 87.4668 94.9744C87.4659 95.1502 87.3955 95.3186 87.2709 95.4427C87.1464 95.5668 86.9778 95.6366 86.8019 95.6368Z" fill="#371A45"/>
<path d="M73.0126 89.0471C74.3314 88.3813 75.7057 87.7873 77.15 87.4949C75.9507 88.2558 74.9244 89.2502 73.9809 90.2888L73.0136 89.0471H73.0126Z" fill="#371A45"/>
<path d="M50.6147 115.819C50.4778 118.028 50.3893 120.234 50.3318 122.386C50.3185 122.93 50.3051 123.471 50.2942 124.006C50.1106 133.444 50.4668 141.495 49.7616 143.529C48.7972 146.298 46.2943 146.538 46.2943 146.538H37.7342C37.7342 146.538 31.8178 146.835 30.2446 145.388C28.6715 143.942 28.827 141.888 29.9745 140.466C30.9566 139.246 32.7166 138.732 32.7166 138.732C32.7166 138.732 31.5277 129.927 30.3107 118.206C30.2632 117.73 30.2114 117.251 30.1628 116.766C29.7914 113.144 29.4243 109.28 29.0905 105.33L50.6147 115.819Z" fill="white"/>
<g opacity="0.2">
<path d="M50.6148 115.819C50.4778 118.028 50.3894 120.234 50.3318 122.386C50.3185 122.93 50.3052 123.471 50.2942 124.006C40.5829 124.577 34.0596 121.153 30.3117 118.205C30.2642 117.729 30.2123 117.25 30.1638 116.765C29.7924 113.143 29.4253 109.278 29.0914 105.329L50.6148 115.819Z" fill="#371A45"/>
</g>
<g opacity="0.2">
<path d="M30.2447 145.388C31.814 146.832 37.7323 146.537 37.7323 146.537H46.2924C46.2924 146.537 48.7967 146.295 49.7606 143.527C49.8814 143.181 49.9718 142.659 50.0384 141.982C48.9417 142.832 47.8304 142.939 47.8304 142.939H38.1518C38.1518 142.939 31.4645 143.272 29.6868 141.638C29.5936 141.553 29.5049 141.463 29.421 141.369C28.8341 142.674 28.9839 144.229 30.2447 145.388Z" fill="#371A45"/>
</g>
<path d="M36.358 147.456C34.3402 147.456 30.9737 147.261 29.6469 146.04C27.883 144.418 27.7313 141.841 29.2859 139.912C30.0088 139.015 31.055 138.452 31.7488 138.153C31.3208 134.889 29.5023 120.678 28.2088 105.406C28.189 105.172 28.263 104.94 28.4143 104.761C28.5657 104.581 28.782 104.47 29.0158 104.45C29.2496 104.43 29.4816 104.504 29.6609 104.655C29.8401 104.807 29.9519 105.023 29.9717 105.257C31.435 122.537 33.5731 138.456 33.5945 138.615C33.6228 138.825 33.5749 139.038 33.4595 139.215C33.344 139.393 33.1687 139.523 32.9653 139.582C32.9525 139.586 31.4549 140.039 30.6631 141.022C29.8452 142.037 29.5841 143.579 30.8438 144.738C31.7384 145.56 35.3845 145.768 37.6886 145.656C37.7028 145.656 37.7176 145.656 37.7323 145.656H46.2382C46.4935 145.618 48.2136 145.286 48.9256 143.239C49.3455 142.032 49.346 137.805 49.3469 132.91C49.3469 128 49.3469 121.888 49.7326 115.764C49.7473 115.53 49.8544 115.311 50.0303 115.156C50.2063 115.001 50.4367 114.922 50.6709 114.936C50.905 114.951 51.1237 115.058 51.2789 115.234C51.4341 115.41 51.513 115.641 51.4983 115.875C51.1179 121.943 51.1179 128.024 51.1179 132.911C51.1179 138.584 51.1179 142.332 50.5986 143.82C49.4615 147.088 46.5045 147.409 46.3794 147.421C46.3514 147.423 46.3228 147.425 46.2948 147.425H37.7537C37.4912 147.437 36.9904 147.456 36.358 147.456Z" fill="#371A45"/>
<path d="M41.9981 130.503C38.5042 130.503 34.4676 130.064 31.0008 128.532C30.7937 128.433 30.6333 128.257 30.5536 128.042C30.4739 127.826 30.4812 127.588 30.5739 127.378C30.6666 127.168 30.8375 127.002 31.0503 126.916C31.2631 126.829 31.5012 126.829 31.7141 126.915C39.1704 130.209 49.9495 127.999 50.0579 127.975C50.1716 127.951 50.2889 127.95 50.403 127.972C50.5172 127.993 50.6261 128.037 50.7233 128.1C50.8206 128.164 50.9044 128.246 50.97 128.342C51.0356 128.438 51.0817 128.545 51.1055 128.659C51.1294 128.773 51.1307 128.89 51.1093 129.004C51.0878 129.118 51.0441 129.227 50.9806 129.325C50.9171 129.422 50.835 129.506 50.7391 129.571C50.6433 129.637 50.5354 129.683 50.4217 129.707C50.1606 129.759 46.5373 130.503 41.9981 130.503Z" fill="#371A45"/>
<path d="M32.5107 137.875C34.8357 137.489 37.1198 137.68 39.3987 138.057C39.5094 138.077 39.6085 138.138 39.676 138.228C39.7434 138.318 39.7743 138.43 39.7622 138.541C39.7501 138.653 39.696 138.756 39.6109 138.83C39.5257 138.903 39.4159 138.941 39.3036 138.937C37.1759 138.865 34.9394 138.973 32.9259 139.594C31.7179 139.927 31.2828 138.133 32.5112 137.875H32.5107Z" fill="#371A45"/>
<path d="M51.9578 115.819C52.0952 118.028 52.1836 120.234 52.2431 122.386C52.2559 122.93 52.2692 123.471 52.2807 124.006C52.4642 133.444 52.108 141.495 52.8133 143.529C53.7772 146.298 56.2806 146.538 56.2806 146.538H64.8406C64.8406 146.538 70.7556 146.835 72.3278 145.389C73.9 143.943 73.7455 141.888 72.5975 140.466C71.6159 139.246 69.8559 138.733 69.8559 138.733C69.8559 138.733 71.0448 129.928 72.2617 118.206C72.3093 117.731 72.3611 117.251 72.4096 116.767C72.7811 113.145 73.1482 109.28 73.482 105.331L51.9578 115.819Z" fill="white"/>
<g opacity="0.2">
<path d="M51.9578 115.819C52.0952 118.028 52.1836 120.234 52.2431 122.386C52.2559 122.93 52.2692 123.471 52.2807 124.006C61.9921 124.577 68.5148 121.153 72.2632 118.205C72.3107 117.729 72.3626 117.25 72.4111 116.765C72.7825 113.143 73.1496 109.278 73.4835 105.329L51.9578 115.819Z" fill="#371A45"/>
</g>
<g opacity="0.2">
<path d="M72.3283 145.388C70.759 146.832 64.8411 146.537 64.8411 146.537H56.281C56.281 146.537 53.7767 146.295 52.8128 143.527C52.6915 143.181 52.6016 142.659 52.5351 141.982C53.6317 142.832 54.7426 142.939 54.7426 142.939H64.4212C64.4212 142.939 71.109 143.272 72.8861 141.638C72.9793 141.553 73.0681 141.463 73.152 141.369C73.7388 142.674 73.589 144.229 72.3283 145.388Z" fill="#371A45"/>
</g>
<path d="M66.215 147.456C65.582 147.456 65.0818 147.437 64.8188 147.424H56.2801C56.252 147.424 56.2235 147.424 56.1955 147.42C56.0704 147.408 53.1129 147.087 51.9763 143.819C51.4584 142.331 51.4579 138.583 51.457 132.91C51.457 128.023 51.457 121.942 51.0765 115.874C51.0618 115.64 51.1408 115.409 51.296 115.233C51.4511 115.057 51.6699 114.95 51.904 114.935C52.1382 114.921 52.3686 115 52.5445 115.155C52.7205 115.31 52.8276 115.529 52.8423 115.763C53.2261 121.887 53.227 127.999 53.228 132.909C53.228 137.804 53.228 142.031 53.6488 143.238C54.3574 145.274 56.0623 145.613 56.3386 145.655H64.8425C64.8573 145.655 64.872 145.655 64.8863 145.655C67.1899 145.767 70.8365 145.56 71.731 144.737C72.9908 143.578 72.7297 142.036 71.9117 141.021C71.1199 140.038 69.6224 139.585 69.6072 139.581C69.4047 139.521 69.2303 139.39 69.1154 139.213C69.0005 139.036 68.9526 138.823 68.9804 138.614C69.0018 138.455 71.1399 122.536 72.6032 105.256C72.6229 105.022 72.7347 104.806 72.914 104.654C73.0933 104.503 73.3253 104.429 73.5591 104.449C73.7928 104.469 74.0092 104.58 74.1605 104.76C74.3119 104.939 74.3858 105.171 74.3661 105.405C73.0726 120.677 71.2536 134.889 70.826 138.152C71.5199 138.451 72.5661 139.014 73.2889 139.911C74.8436 141.84 74.6919 144.417 72.928 146.039C71.5993 147.261 68.2328 147.456 66.215 147.456Z" fill="#371A45"/>
<path d="M60.5749 130.503C56.0347 130.503 52.4124 129.761 52.1503 129.706C52.0366 129.682 51.9288 129.636 51.8329 129.57C51.737 129.505 51.6549 129.421 51.5914 129.324C51.5279 129.226 51.4842 129.118 51.4628 129.003C51.4413 128.889 51.4426 128.772 51.4665 128.658C51.4904 128.544 51.5364 128.437 51.602 128.341C51.6676 128.245 51.7514 128.163 51.8487 128.099C51.946 128.036 52.0548 127.992 52.169 127.971C52.2832 127.949 52.4005 127.95 52.5141 127.974C52.6221 127.997 63.4125 130.203 70.8574 126.914C70.9645 126.861 71.0812 126.83 71.2005 126.823C71.3199 126.817 71.4394 126.834 71.5518 126.875C71.6642 126.915 71.7671 126.979 71.8545 127.06C71.9419 127.142 72.0118 127.24 72.06 127.35C72.1083 127.459 72.1339 127.577 72.1352 127.696C72.1366 127.816 72.1137 127.935 72.068 128.045C72.0223 128.155 71.9546 128.255 71.8692 128.339C71.7837 128.423 71.6822 128.488 71.5707 128.531C68.1054 130.061 64.0683 130.503 60.5749 130.503Z" fill="#371A45"/>
<path d="M69.6476 139.593C67.6336 138.972 65.3975 138.864 63.2699 138.936C62.723 138.955 62.6364 138.153 63.1748 138.056C65.4536 137.679 67.7373 137.486 70.0628 137.874C71.2883 138.131 70.8593 139.923 69.6481 139.593H69.6476Z" fill="#371A45"/>
<path d="M66.215 147.456C65.582 147.456 65.0818 147.437 64.8188 147.424H56.2801C56.252 147.424 56.2235 147.424 56.1955 147.42C56.0704 147.408 53.1129 147.087 51.9763 143.819C51.4584 142.331 51.4579 138.583 51.457 132.91C51.457 128.023 51.457 121.942 51.0765 115.874C51.0618 115.64 51.1408 115.409 51.296 115.233C51.4511 115.057 51.6699 114.95 51.904 114.935C52.1382 114.921 52.3686 115 52.5445 115.155C52.7205 115.31 52.8276 115.529 52.8423 115.763C53.2261 121.887 53.227 127.999 53.228 132.909C53.228 137.804 53.228 142.031 53.6493 143.238C54.3574 145.274 56.0628 145.613 56.3391 145.655H64.8425C64.8573 145.655 64.872 145.655 64.8863 145.655C67.1904 145.768 70.8365 145.56 71.731 144.737C72.9908 143.578 72.7297 142.036 71.9117 141.021C71.1199 140.038 69.6224 139.585 69.6072 139.581C69.4047 139.521 69.2303 139.39 69.1154 139.213C69.0005 139.036 68.9526 138.823 68.9804 138.614C69.0018 138.455 71.1399 122.536 72.6032 105.256C72.6229 105.022 72.7347 104.806 72.914 104.654C73.0933 104.503 73.3253 104.429 73.5591 104.449C73.7928 104.469 74.0092 104.58 74.1605 104.76C74.3119 104.939 74.3858 105.171 74.3661 105.405C73.0726 120.677 71.2536 134.889 70.826 138.152C71.5199 138.451 72.5661 139.014 73.2889 139.911C74.8436 141.84 74.6919 144.417 72.9285 146.039C71.5993 147.261 68.2328 147.456 66.215 147.456Z" fill="#371A45"/>
<path d="M68.3122 74.7385C73.8762 86.2508 76.3796 96.7864 74.6814 104.976C74.0755 107.898 73.0645 110.303 71.7705 112.28C68.9766 116.539 64.8482 118.807 60.5473 119.962C57.4038 120.806 54.1667 121.056 51.2886 121.056C49.073 121.056 46.6443 120.907 44.209 120.454C43.5261 120.326 42.8427 120.175 42.1641 119.997C38.3296 118.988 34.6241 117.105 31.8663 113.726C30.0592 111.511 28.6572 108.652 27.8949 104.976C26.1967 96.7859 28.6996 86.2504 34.2641 74.738" fill="white"/>
<path d="M75.2035 99.2919C75.2235 101.289 75.0528 103.188 74.6804 104.977C74.5967 105.386 74.504 105.785 74.4022 106.173C73.7873 108.563 72.8852 110.58 71.7686 112.28C68.9756 116.539 64.8473 118.806 60.5454 119.962C57.401 120.807 54.1639 121.056 51.2872 121.056C49.0716 121.056 46.6415 120.908 44.2071 120.454C43.5237 120.326 42.8403 120.176 42.1622 119.997C38.3258 118.988 34.6217 117.104 31.8625 113.726C30.2456 111.742 28.9526 109.242 28.1498 106.101C28.0547 105.734 27.9705 105.361 27.8911 104.976C27.5197 103.187 27.3495 101.288 27.368 99.291C27.4303 92.14 29.9089 83.7354 34.2608 74.7379C34.2608 74.7379 31.027 56.133 51.2858 55.3526C71.5446 54.5723 68.3108 74.7379 68.3108 74.7379C72.6645 83.7364 75.1412 92.1409 75.2035 99.2919Z" fill="white"/>
<g opacity="0.2">
<path d="M68.9499 76.0899C64.7779 78.6018 58.6745 80.1849 51.8731 80.1849C44.5628 80.1849 38.0576 78.3564 33.8917 75.5131C34.0135 75.2544 34.1347 74.9975 34.2612 74.7388C34.2612 74.7388 31.9348 61.3656 43.5746 56.8193C46.3055 56.2629 49.086 55.9858 51.8731 55.9923C54.9 55.9923 57.7881 56.3066 60.4303 56.8768C70.4403 61.4698 68.3113 74.7388 68.3113 74.7388C68.53 75.1901 68.7445 75.641 68.9499 76.0899Z" fill="#371A45"/>
</g>
<g opacity="0.2">
<path d="M74.6814 104.977C74.0755 107.898 73.0673 110.303 71.7695 112.281C68.9766 116.539 64.8482 118.806 60.5463 119.962C57.4019 120.807 54.1648 121.056 51.2881 121.056C49.0725 121.056 46.6424 120.908 44.208 120.454C43.5246 120.326 42.8413 120.176 42.1631 119.997C38.3268 118.988 34.6226 117.105 31.8635 113.726C30.0563 111.51 28.6549 108.651 27.8921 104.975C27.4232 102.716 27.2738 100.277 27.4232 97.6875C27.4909 98.904 27.6476 100.114 27.8921 101.307C28.653 104.984 30.0568 107.841 31.8635 110.058C34.6217 113.437 38.3268 115.321 42.1631 116.329C42.8417 116.508 43.5251 116.659 44.208 116.786C46.6424 117.24 49.0725 117.388 51.2881 117.388C54.1648 117.388 57.4019 117.138 60.5463 116.294C64.8492 115.14 68.9775 112.87 71.7695 108.613C73.0673 106.636 74.0755 104.23 74.6814 101.309C74.926 100.116 75.0828 98.9059 75.1503 97.6894C75.2986 100.278 75.1503 102.717 74.6814 104.977Z" fill="#371A45"/>
</g>
<path d="M31.5201 114.007C29.819 112.622 28.7343 110.638 27.9743 108.615C25.647 102.558 26.1292 95.7961 27.7841 89.6404C27.8424 89.4155 27.9869 89.2226 28.1862 89.1033C28.3856 88.984 28.6239 88.9479 28.8496 89.0029C29.0754 89.0579 29.2704 89.1994 29.3927 89.397C29.5149 89.5946 29.5544 89.8324 29.5028 90.0589C29.2945 91.0614 29.0948 92.0634 28.9259 93.0687C28.2954 97.0496 28.0609 101.149 28.8974 105.103C29.4571 108.099 30.8125 110.76 32.2068 113.449C32.4322 113.872 31.8939 114.318 31.5215 114.009L31.5201 114.007Z" fill="#371A45"/>
<path d="M60.66 120.389C55.7142 122.271 49.4368 122.361 44.3108 121.143C43.5465 120.931 42.789 120.688 42.0485 120.425C41.9937 120.405 41.9432 120.375 41.8999 120.337C41.8567 120.298 41.8216 120.251 41.7965 120.198C41.7715 120.146 41.757 120.089 41.754 120.031C41.751 119.972 41.7594 119.914 41.7789 119.859C41.8144 119.761 41.8833 119.678 41.9737 119.625C42.064 119.572 42.1701 119.552 42.2735 119.569C43.0424 119.635 43.7905 119.76 44.5433 119.844C48.3131 120.235 52.1185 120.265 55.8987 120.026C57.411 119.921 58.9161 119.752 60.4327 119.535C60.9444 119.461 61.146 120.197 60.66 120.391V120.389Z" fill="#371A45"/>
<path d="M70.9401 79.5001C75.3961 88.6213 78.5586 100.718 73.8016 110.291C73.084 111.665 72.1785 112.952 71.0529 114.007C70.6776 114.35 70.0979 113.891 70.3676 113.447C76.9883 103.135 73.8006 90.64 70.1231 79.8396C69.9557 79.3331 70.6852 79.005 70.9401 79.5001Z" fill="#371A45"/>
<g opacity="0.2">
<path d="M65.3633 99.2919V94.0018C65.361 93.2432 65.0587 92.5163 64.5223 91.9799C63.9859 91.4435 63.259 91.1412 62.5004 91.1389H39.8942C39.1357 91.1412 38.4088 91.4435 37.8724 91.9799C37.336 92.5163 37.0336 93.2432 37.0314 94.0018V99.2919H27.3685L28.1494 106.102C30.9024 105.73 33.9764 105.332 37.0314 104.972V108.424C37.0336 109.182 37.336 109.909 37.8724 110.445C38.4088 110.982 39.1357 111.284 39.8942 111.286H62.5004C63.259 111.284 63.9859 110.982 64.5223 110.445C65.0587 109.909 65.361 109.182 65.3633 108.424V104.925C68.502 105.321 71.6521 105.765 74.4027 106.173C74.5045 105.784 74.5974 105.385 74.6814 104.977C75.0528 103.188 75.2235 101.289 75.2045 99.2919H65.3633Z" fill="#371A45"/>
</g>
<path d="M63.8767 96.9328C63.8767 96.9328 71.4438 96.3559 74.6291 98.6491C78.0136 101.086 74.6034 103.906 74.6034 103.906C74.6034 103.906 68.5091 102.574 63.3911 102.765L63.8767 96.9328Z" fill="white"/>
<g opacity="0.2">
<path d="M74.6043 103.907C74.6043 103.907 68.5077 102.575 63.3911 102.766L63.5747 100.55C67.1319 100.441 71.1185 101.047 73.1867 101.42C74.2862 101.618 75.4009 101.064 75.8579 100.044C75.8627 100.034 75.8669 100.024 75.8712 100.015C76.8728 102.029 74.6043 103.907 74.6043 103.907Z" fill="#371A45"/>
</g>
<path d="M39.3278 96.9328C39.3278 96.9328 31.7607 96.3559 28.5754 98.6491C25.1904 101.086 28.6006 103.906 28.6006 103.906C28.6006 103.906 34.6954 102.574 39.8134 102.765L39.3278 96.9328Z" fill="white"/>
<path d="M74.8355 104.862L74.4151 104.77C74.3551 104.757 68.365 103.467 63.4235 103.649L62.4248 103.686L63.0582 96.1082L63.8096 96.0506C64.1321 96.0264 71.7381 95.4771 75.146 97.9315C76.3439 98.7941 76.9712 99.8175 77.0097 100.975C77.0772 102.986 75.2454 104.524 75.1674 104.589L74.8355 104.862ZM64.4336 101.862C68.5557 101.862 72.9147 102.662 74.3285 102.946C74.7299 102.518 75.2687 101.766 75.2411 101.028C75.2197 100.45 74.8397 99.8912 74.1121 99.3672C71.9659 97.8216 67.1319 97.6766 64.6961 97.7726L64.3556 101.862L64.4336 101.862Z" fill="#371944"/>
<path d="M28.3662 104.862L28.0333 104.588C27.9553 104.523 26.124 102.985 26.191 100.973C26.2295 99.8169 26.8568 98.7935 28.0547 97.9299C31.4626 95.476 39.0687 96.0243 39.3911 96.049L40.143 96.1066L40.7735 103.685L39.7749 103.648C34.8319 103.466 28.8432 104.756 28.7833 104.768L28.3662 104.862ZM37.3001 97.7501C34.7125 97.7501 30.919 98.0497 29.0895 99.367C28.3619 99.8901 27.982 100.449 27.9606 101.028C27.933 101.766 28.4713 102.514 28.8736 102.946C30.2875 102.66 34.6469 101.862 38.7681 101.862H38.848L38.5075 97.772C38.1513 97.7587 37.7433 97.7501 37.3001 97.7501Z" fill="#371944"/>
<path d="M64.3656 94.6779V105.453C64.3656 107.453 62.7905 109.089 60.8669 109.089H41.7603C39.8348 109.089 38.2621 107.453 38.2621 105.453V94.6779C38.2621 92.6806 39.8348 91.0447 41.7603 91.0447H60.8669C62.4034 91.0447 63.7202 92.0909 64.1848 93.5285C64.3044 93.9 64.3654 94.2877 64.3656 94.6779Z" fill="white"/>
<g opacity="0.2">
<path d="M64.3656 94.678V105.453C64.3656 107.453 62.7905 109.089 60.8669 109.089H41.7603C39.8348 109.089 38.2621 107.453 38.2621 105.453V101.827C41.5587 103.722 48.0891 106.567 54.6437 104.219C57.8456 103.072 61.5165 99.1378 61.5165 99.1378C61.5165 99.1378 61.6592 103.265 62.2479 103.2C63.8871 103.019 63.8753 94.668 64.1848 93.5291C64.3044 93.9003 64.3653 94.288 64.3656 94.678Z" fill="#371A45"/>
</g>
<path d="M60.9972 109.972H41.6291C40.5016 109.971 39.4207 109.523 38.6235 108.725C37.8263 107.928 37.3779 106.847 37.3766 105.72V94.4129C37.3779 93.2854 37.8263 92.2045 38.6235 91.4073C39.4207 90.6101 40.5016 90.1617 41.6291 90.1604H60.9972C62.1246 90.1617 63.2055 90.6101 64.0027 91.4073C64.7999 92.2045 65.2484 93.2854 65.2496 94.4129V105.72C65.2484 106.847 64.7999 107.928 64.0027 108.725C63.2055 109.523 62.1246 109.971 60.9972 109.972ZM41.6291 91.9295C40.9706 91.9302 40.3394 92.1921 39.8737 92.6577C39.4081 93.1232 39.1461 93.7544 39.1452 94.4129V105.72C39.1461 106.378 39.4081 107.009 39.8737 107.475C40.3394 107.94 40.9706 108.202 41.6291 108.203H60.9972C61.6556 108.202 62.2869 107.94 62.7525 107.475C63.2181 107.009 63.4801 106.378 63.481 105.72V94.4129C63.4801 93.7544 63.2181 93.1232 62.7525 92.6577C62.2869 92.1921 61.6556 91.9302 60.9972 91.9295H41.6291Z" fill="#371944"/>
<path d="M58.082 103.2C59.7485 103.2 61.0994 101.797 61.0994 100.066C61.0994 98.3355 59.7485 96.9326 58.082 96.9326C56.4155 96.9326 55.0646 98.3355 55.0646 100.066C55.0646 101.797 56.4155 103.2 58.082 103.2Z" fill="#22A7F0"/>
<path d="M61.0999 100.067C61.1005 100.276 61.0806 100.485 61.0405 100.69C60.7618 99.2548 59.5425 98.1748 58.0815 98.1748C56.6206 98.1748 55.4013 99.2548 55.1245 100.69C55.0846 100.485 55.0647 100.276 55.0651 100.067C55.0651 98.3369 56.4152 96.9326 58.0815 96.9326C59.7479 96.9326 61.0999 98.3365 61.0999 100.067Z" fill="white"/>
<path d="M61.099 100.068C61.099 101.8 59.7474 103.201 58.082 103.201C56.4166 103.201 55.0651 101.8 55.0651 100.068C55.065 99.7843 55.1017 99.5021 55.1744 99.2283C55.5292 100.55 56.6962 101.52 58.082 101.52C59.4678 101.52 60.6348 100.55 60.9896 99.2283C61.0623 99.5021 61.099 99.7843 61.099 100.068Z" fill="#1C7AEA"/>
<path d="M58.082 103.863C56.0523 103.863 54.4011 102.16 54.4011 100.066C54.4011 97.9723 56.0523 96.2693 58.082 96.2693C60.1117 96.2693 61.7628 97.9727 61.7628 100.066C61.7628 102.16 60.1098 103.863 58.082 103.863ZM58.082 97.5961C56.7842 97.5961 55.728 98.7042 55.728 100.066C55.728 101.428 56.7842 102.536 58.082 102.536C59.3798 102.536 60.436 101.428 60.436 100.066C60.436 98.7042 59.3798 97.5947 58.082 97.5947V97.5961Z" fill="#371944"/>
<path d="M48.5323 109.972C48.2977 109.972 48.0727 109.879 47.9068 109.713C47.7409 109.547 47.6477 109.322 47.6477 109.088V103.571C47.6477 102.484 47.1513 101.446 46.3195 100.795L45.8344 100.415C44.5771 99.4319 43.8266 97.873 43.8266 96.2452V91.0449C43.8266 90.8104 43.9198 90.5854 44.0857 90.4195C44.2516 90.2536 44.4766 90.1604 44.7112 90.1604C44.9458 90.1604 45.1708 90.2536 45.3366 90.4195C45.5025 90.5854 45.5957 90.8104 45.5957 91.0449V96.2485C45.5957 97.3366 46.0922 98.3743 46.9239 99.0244L47.409 99.4048C48.6664 100.388 49.4168 101.947 49.4168 103.574V109.091C49.4161 109.325 49.3226 109.549 49.1567 109.714C48.9909 109.879 48.7664 109.972 48.5323 109.972Z" fill="#371944"/>
<path d="M51.4974 90.1397C51.9592 92.8594 51.6035 94.5357 50.9667 95.6875C50.5487 96.4484 50.0046 96.9834 49.4963 97.4366C47.517 99.201 41.2924 99.6718 41.2924 99.6718C41.2924 99.6718 29.2617 104.823 21.8273 101.214C16.8724 98.8053 15.645 91.845 17.8188 86.4027C17.9867 85.9847 18.1836 85.5467 18.4114 85.0873C18.4117 85.0851 18.4117 85.0829 18.4114 85.0807C21.5914 78.6682 30.5353 68.9302 44.7098 67.6628L32.7647 80.7407L30.8976 85.8482C35.853 85.7973 39.3245 85.667 40.3218 85.2115C41.319 84.7559 41.0228 81.2867 41.9891 79.9575C42.5308 79.2104 44.627 79.2479 45.2928 80.696C46.0756 82.408 44.9651 84.4001 46.009 85.1715C46.7851 85.7465 49.5757 84.8048 51.2073 86.2948C52.1275 87.1346 51.8826 89.0563 51.4974 90.1397Z" fill="white"/>
<g opacity="0.2">
<path d="M44.7112 67.6628L36.2733 76.9015C33.7481 75.6408 31.7645 74.0777 30.5305 72.32C34.8354 69.6958 39.6886 68.1019 44.7112 67.6628Z" fill="#371A45"/>
</g>
<g opacity="0.2">
<path d="M50.9667 95.6879C50.5487 96.4487 50.0046 96.9838 49.4963 97.437C47.517 99.2013 41.2924 99.6721 41.2924 99.6721C41.2924 99.6721 29.2617 104.823 21.8273 101.214C16.8724 98.8056 15.645 91.8453 17.8188 86.403C17.9867 85.985 18.1836 85.547 18.4114 85.0876C18.3272 85.4148 15.2251 97.6933 23.9754 100.068C31.8321 102.201 38.0743 97.202 40.599 96.9343C42.6901 96.7117 47.3577 98.8189 50.9667 95.6879Z" fill="#371A45"/>
</g>
<path d="M44.7896 68.5452C36.1344 69.2752 27.9548 73.7388 22.4935 80.4727C20.7121 82.6831 19.108 85.1175 18.2568 87.8348C17.1102 91.7101 17.5287 96.4966 20.5975 99.3262C23.7566 102.045 28.7043 101.84 32.612 101.225C35.4663 100.736 38.2599 99.9425 40.9447 98.8573C41.0346 98.8206 41.1295 98.7973 41.2263 98.7884C42.5629 98.6744 43.8913 98.4785 45.2038 98.2015C46.3956 97.9343 47.7628 97.5833 48.7296 96.9175C50.9129 95.2968 51.0675 92.8453 50.6257 90.2873C50.6005 90.138 50.6139 89.9848 50.6647 89.8421C50.9234 89.0755 51.0751 88.1273 50.8506 87.3597C50.7755 87.1576 50.7236 87.0378 50.5605 86.9056C50.2043 86.5936 49.7045 86.4181 49.1215 86.3349C47.5422 86.0776 45.1848 86.8794 44.7107 84.6153C44.3973 83.133 45.4716 80.5592 43.2997 80.3633C43.0519 80.3514 42.8089 80.4056 42.7005 80.4836C42.6308 80.5853 42.5729 80.6946 42.5279 80.8094C41.9458 82.2361 42.195 84.095 41.309 85.4965C40.9057 86.1242 39.9275 86.2674 39.2983 86.3634C37.8441 86.5603 36.4635 86.6012 35.0659 86.654C33.6273 86.6882 32.1944 86.7387 30.763 86.722C30.1923 86.6935 29.8185 86.0562 30.0658 85.5436L32.3485 80.5906C32.5825 80.1032 33.3172 80.3752 33.1793 80.895L31.7265 86.1513L30.8867 84.9624C32.2658 84.9477 33.6406 84.9277 35.0097 84.8854C36.669 84.7903 38.4014 84.8421 39.9422 84.4098C39.9608 84.4027 39.9384 84.4098 39.9299 84.417C39.9213 84.4241 39.8595 84.4712 39.8795 84.4512C40.0502 84.1659 40.1173 83.7464 40.1957 83.3503C40.4501 82.0615 40.4663 80.6496 41.2662 79.4431C41.7313 78.7859 42.6767 78.5557 43.3715 78.5957C45.4911 78.687 46.5577 80.4137 46.4764 82.3806C46.5054 83.0545 46.2933 83.8582 46.4959 84.4227C46.5045 84.4398 46.5497 84.4674 46.5007 84.4384C46.6077 84.4897 46.9972 84.4973 47.1831 84.5007C48.7458 84.4669 50.8016 84.5007 51.981 85.8251C53.0482 87.1258 52.8018 88.9638 52.3282 90.438L52.3672 89.9929C52.7372 92.1301 52.769 94.7328 51.4089 96.6507C50.9509 97.2952 50.3986 97.8672 49.7706 98.3475C49.0749 98.8469 48.3715 99.1179 47.6729 99.3657C45.6085 100.041 43.5099 100.353 41.3575 100.555L41.639 100.486C38.8248 101.626 35.8954 102.458 32.9021 102.969C28.4242 103.673 23.058 103.795 19.4166 100.642C15.7919 97.3203 15.2317 91.8248 16.5633 87.3236C19.3467 79.0222 27.6695 71.779 35.7564 68.8015C38.6035 67.7177 41.6058 67.0681 44.6322 66.7818C44.7486 66.7701 44.8662 66.7815 44.9782 66.8156C45.0901 66.8496 45.1942 66.9055 45.2844 66.98C45.3746 67.0545 45.4492 67.1462 45.5037 67.2498C45.5582 67.3533 45.5916 67.4666 45.602 67.5832C45.6124 67.6997 45.5996 67.8172 45.5643 67.9287C45.529 68.0403 45.4719 68.1437 45.3964 68.2331C45.3208 68.3224 45.2283 68.3959 45.1241 68.4492C45.02 68.5026 44.9063 68.5347 44.7896 68.5438V68.5452Z" fill="#371A45"/>
<path d="M22.7342 87.8933C22.7342 87.8933 24.8266 86.2288 30.8986 85.8484L22.7342 87.8933Z" fill="white"/>
<path d="M22.4583 87.5461C23.6724 86.6425 25.1148 86.1632 26.5482 85.7599C27.9125 85.3795 29.4357 85.1345 30.8429 84.9652C32.0665 84.853 32.2106 86.6506 30.9799 86.7301C28.9288 86.7629 26.7997 86.9255 24.8276 87.4976C24.1856 87.6878 23.5336 87.918 22.9639 88.2652C22.4992 88.5424 22.0399 87.8895 22.4579 87.5461H22.4583Z" fill="#371A45"/>
<path d="M23.7737 102.603C23.6676 102.603 23.563 102.578 23.4687 102.529C23.3744 102.481 23.2933 102.41 23.2321 102.323C21.1981 99.4503 20.6835 96.5166 21.7027 93.6038C23.3876 88.7878 28.5983 85.8236 30.714 85.2106C30.8001 85.1776 30.892 85.1629 30.9841 85.1673C31.0761 85.1717 31.1663 85.1951 31.2488 85.2361C31.3313 85.2772 31.4044 85.3349 31.4634 85.4056C31.5225 85.4764 31.5662 85.5586 31.5918 85.6471C31.6175 85.7356 31.6244 85.8285 31.6123 85.9199C31.6002 86.0112 31.5693 86.099 31.5214 86.1778C31.4736 86.2566 31.41 86.3246 31.3345 86.3775C31.259 86.4304 31.1734 86.467 31.0831 86.4851C28.9554 87.1033 24.3867 89.9496 22.9548 94.0422C22.086 96.5261 22.5435 99.0541 24.3144 101.556C24.3847 101.655 24.4264 101.772 24.4349 101.893C24.4433 102.014 24.4183 102.136 24.3625 102.244C24.3067 102.352 24.2222 102.442 24.1184 102.506C24.0145 102.569 23.8953 102.602 23.7737 102.602V102.603Z" fill="#371A45"/>
<path d="M86.1909 28.0352C86.1909 28.0352 94.2416 31.0873 95.0691 32.5777C96.6032 35.3407 96.3184 51.582 92.0731 55.8159C90.4115 57.4742 78.2034 59.0235 78.2034 59.0235L86.1909 28.0352Z" fill="white"/>
<g opacity="0.2">
<path d="M78.2053 59.0233C78.2053 59.0233 90.4134 57.4734 92.074 55.8152C93.7347 54.1569 94.7847 50.6791 95.3597 46.8818C95.2251 47.0035 90.9132 50.7248 82.3117 43.1605L82.2961 43.1472L78.2053 59.0233Z" fill="#371A45"/>
</g>
<path d="M51.2901 44.9858V45.125L51.2011 45.0566L51.2901 44.9858Z" fill="#D8D8D8"/>
<path d="M51.2016 45.0566L51.1132 45.125V44.9858L51.2016 45.0566Z" fill="#D8D8D8"/>
<path d="M24.6112 59.0236C24.6112 59.0236 12.4031 57.4737 10.7425 55.8154C9.08181 54.1572 8.03177 50.6794 7.45682 46.8821C6.55707 40.9556 6.81577 34.265 7.7512 32.5801C8.57819 31.0897 16.6289 28.0356 16.6289 28.0356L20.5228 43.1494L24.6112 59.0236Z" fill="white"/>
<g opacity="0.2">
<path d="M24.6112 59.0233C24.6112 59.0233 12.4031 57.4734 10.7425 55.8152C9.0818 54.1569 8.03176 50.6791 7.45681 46.8818C7.59187 47.0035 11.9033 50.7248 20.5052 43.1605C20.5095 43.1563 20.5161 43.1515 20.5204 43.1472L24.6112 59.0233Z" fill="#371A45"/>
</g>
<path d="M77.0235 60.065L85.5807 26.8577L86.5042 27.2077C89.0157 28.1588 94.954 30.5475 95.8423 32.1483C97.5424 35.2109 97.3265 51.825 92.6998 56.4422C90.9146 58.2232 80.4052 59.6356 78.3166 59.9009L77.0235 60.065ZM86.7991 29.2188L79.3889 57.974C84.8831 57.2131 90.6121 56.028 91.4501 55.19C95.3691 51.2795 95.6702 35.4824 94.2958 33.0071C93.883 32.3275 90.2545 30.5884 86.7991 29.2188Z" fill="#371A45"/>
<path d="M25.7939 60.065L24.5009 59.9009C22.4122 59.6356 11.9028 58.2232 10.1181 56.4422C5.49087 51.825 5.27497 35.2109 6.97509 32.1483C7.86391 30.5475 13.8017 28.1602 16.3132 27.2077L17.2367 26.8577L25.7939 60.065ZM16.0188 29.2193C12.5624 30.586 8.93297 32.328 8.52066 33.0085C7.14772 35.4815 7.44828 51.2795 11.3674 55.19C12.2067 56.028 17.9344 57.2131 23.4285 57.974L16.0188 29.2193Z" fill="#371A45"/>
<path d="M51.4056 75.5411C72.0213 75.5411 88.7337 58.8288 88.7337 38.2131C88.7337 17.5973 72.0213 0.88501 51.4056 0.88501C30.7899 0.88501 14.0775 17.5973 14.0775 38.2131C14.0775 58.8288 30.7899 75.5411 51.4056 75.5411Z" fill="white"/>
<g opacity="0.2">
<path d="M88.7346 38.212C88.7346 58.828 72.0225 75.5401 51.4066 75.5401C30.7906 75.5401 14.0752 58.828 14.0752 38.212C14.0737 36.0723 14.2564 33.9365 14.6211 31.8281C17.6495 49.4015 32.9663 62.7699 51.4056 62.7699C69.8449 62.7699 85.1594 49.4015 88.1877 31.8281C88.5528 33.9365 88.7358 36.0723 88.7346 38.212Z" fill="#371A45"/>
</g>
<path d="M51.4071 76.4257C30.3365 76.4257 13.1945 59.2837 13.1945 38.2131C13.1945 17.1425 30.335 0.000488281 51.4071 0.000488281C72.4791 0.000488281 89.6197 17.1425 89.6197 38.2131C89.6197 59.2837 72.4743 76.4257 51.4071 76.4257ZM51.4071 1.76957C31.3118 1.76957 14.9631 18.1179 14.9631 38.2131C14.9631 58.3083 31.3118 74.6571 51.4071 74.6571C71.5023 74.6571 87.8506 58.3083 87.8506 38.2131C87.8506 18.1179 71.5009 1.76957 51.4071 1.76957Z" fill="#371A45"/>
<path d="M51.4071 76.4257C30.3365 76.4257 13.1945 59.2837 13.1945 38.2131C13.1945 17.1425 30.335 0.000488281 51.4071 0.000488281C72.4791 0.000488281 89.6197 17.1425 89.6197 38.2131C89.6197 59.2837 72.4743 76.4257 51.4071 76.4257ZM51.4071 1.76957C31.3118 1.76957 14.9631 18.1179 14.9631 38.2131C14.9631 58.3083 31.3118 74.6571 51.4071 74.6571C71.5023 74.6571 87.8506 58.3083 87.8506 38.2131C87.8506 18.1179 71.5009 1.76957 51.4071 1.76957Z" fill="#371A45"/>
<path d="M51.4071 76.4257C30.3365 76.4257 13.1945 59.2837 13.1945 38.2131C13.1945 17.1425 30.335 0.000488281 51.4071 0.000488281C72.4791 0.000488281 89.6197 17.1425 89.6197 38.2131C89.6197 59.2837 72.4743 76.4257 51.4071 76.4257ZM51.4071 1.76957C31.3118 1.76957 14.9631 18.1179 14.9631 38.2131C14.9631 58.3083 31.3118 74.6571 51.4071 74.6571C71.5023 74.6571 87.8506 58.3083 87.8506 38.2131C87.8506 18.1179 71.5009 1.76957 51.4071 1.76957Z" fill="#371A45"/>
<path d="M51.4071 76.4252C33.9954 76.4252 18.797 64.6789 14.4261 47.8555C14.419 47.8351 14.4128 47.8146 14.4076 47.7932C13.2424 43.2709 12.9131 38.5737 13.436 33.9331C15.5856 14.5902 31.9091 0.000976562 51.4071 0.000976562C70.905 0.000976562 87.2338 14.5945 89.3819 33.9464C89.8987 38.5824 89.5697 43.2738 88.4108 47.7923C88.4051 47.8142 88.3989 47.836 88.3918 47.857C84.0138 64.6803 68.8125 76.4252 51.4071 76.4252ZM16.1258 47.3638C20.2784 63.4344 34.7848 74.6562 51.4071 74.6562C68.0293 74.6562 82.5367 63.433 86.6935 47.3624C86.6992 47.3381 86.7064 47.3148 86.7145 47.2906C87.8077 42.9986 88.116 38.5444 87.6247 34.1428C85.5727 15.6868 70.0014 1.76958 51.4071 1.76958C32.8127 1.76958 17.2462 15.6821 15.1942 34.1309C15.0403 35.486 14.9635 36.8488 14.964 38.2126C14.9615 41.2745 15.3449 44.3246 16.1053 47.2906C16.1101 47.3148 16.1172 47.3391 16.1234 47.3638H16.1258Z" fill="#371A45"/>
<path d="M87.4335 29.3082C87.2606 29.3081 87.0915 29.2574 86.9471 29.1624C86.8027 29.0673 86.6892 28.932 86.6208 28.7732C80.7238 15.0795 66.8993 6.23173 51.4056 6.23173C35.9214 6.23173 22.1012 15.0719 16.1967 28.7537C16.1066 28.9569 15.9434 29.1187 15.7394 29.207C15.5355 29.2953 15.3058 29.3036 15.096 29.2302C14.8862 29.1569 14.7118 29.0072 14.6073 28.8111C14.5028 28.6149 14.476 28.3867 14.5322 28.1716C19.0324 11.5846 34.1956 0 51.4071 0C68.6285 0 83.795 11.5932 88.2881 28.1926C88.3234 28.3237 88.328 28.4611 88.3017 28.5943C88.2754 28.7275 88.2189 28.8529 88.1364 28.9608C88.054 29.0686 87.9478 29.1561 87.8262 29.2164C87.7046 29.2768 87.5707 29.3083 87.4349 29.3087L87.4335 29.3082ZM51.4071 4.46217C59.4473 4.46217 67.1956 6.74485 73.814 11.0653C76.5943 12.875 79.1358 15.0273 81.3787 17.4716C74.7095 7.85671 63.5966 1.76956 51.4071 1.76956C39.2651 1.76956 28.1917 7.81486 21.5129 17.3636C28.9326 9.28814 39.7178 4.46217 51.4071 4.46217Z" fill="#371A45"/>
<path d="M88.7313 38.214C88.7335 41.3708 88.3364 44.5153 87.5495 47.5725C87.5487 47.5725 87.5478 47.5729 87.5472 47.5735C87.5466 47.5741 87.5462 47.575 87.5462 47.5758C81.0705 60.0864 67.3178 70.8511 51.4037 70.8511C35.4896 70.8511 21.7388 60.0864 15.2646 47.5758C15.2646 47.575 15.2642 47.5741 15.2636 47.5735C15.263 47.5729 15.2621 47.5725 15.2612 47.5725C14.4718 44.5158 14.0739 41.3711 14.0771 38.214C14.0769 36.8175 14.1563 35.4222 14.3149 34.0348C19.3506 20.1009 34.0506 10.019 51.4085 10.019C68.7664 10.019 83.4721 20.1076 88.5021 34.0443C88.6561 35.4288 88.7327 36.8209 88.7313 38.214Z" fill="#371A45"/>
<g opacity="0.35">
<path d="M88.7327 38.2149C88.7356 41.3717 88.339 44.5162 87.5524 47.5735C87.5515 47.5735 87.5507 47.5738 87.55 47.5744C87.5494 47.5751 87.5491 47.5759 87.5491 47.5768C81.0738 60.0873 67.3212 70.8516 51.4066 70.8516C35.492 70.8516 21.7407 60.0873 15.2646 47.5768C15.2646 47.5759 15.2642 47.5751 15.2636 47.5744C15.263 47.5738 15.2621 47.5735 15.2612 47.5735C14.7958 45.7709 14.4663 43.9359 14.2754 42.0841C22.6452 51.4864 34.8138 58.3273 48.3616 58.3273C65.6215 58.3273 80.652 47.2253 88.4322 33.865C88.456 33.9263 88.4797 33.9844 88.5007 34.0457C88.6554 35.43 88.7329 36.822 88.7327 38.2149Z" fill="#111A28"/>
</g>
<path d="M51.4037 71.3267C43.8304 71.3267 36.2648 68.8961 29.528 64.2979C23.4137 60.1259 18.2054 54.2765 14.8589 47.8241C14.8333 47.783 14.8142 47.7383 14.8023 47.6914C14.0024 44.5958 13.5985 41.4113 13.6001 38.214C13.5992 36.7998 13.6786 35.3867 13.8379 33.9815C13.8417 33.9448 13.8502 33.9087 13.8631 33.874C16.4002 26.8534 21.2818 20.8133 27.9748 16.4058C34.7929 11.9175 42.894 9.54492 51.4023 9.54492C59.9105 9.54492 68.015 11.9189 74.834 16.4096C81.5299 20.8195 86.4096 26.8619 88.9453 33.8845C88.9582 33.9195 88.9667 33.9559 88.9705 33.9929C89.482 38.5799 89.1565 43.2217 88.0099 47.6924C87.9976 47.7391 87.9785 47.7838 87.9533 47.825C84.6068 54.277 79.3975 60.1268 73.2823 64.2989C66.5436 68.8961 58.9775 71.3267 51.4037 71.3267ZM15.7054 47.3951C21.6456 58.8404 34.9784 70.3756 51.4037 70.3756C67.829 70.3756 81.1651 58.8404 87.1053 47.3951C88.2059 43.0731 88.5202 38.5884 88.0332 34.1551C82.8947 20.0015 68.1829 10.4965 51.4037 10.4965C34.6246 10.4965 19.9184 19.9977 14.7776 34.1456C14.2851 38.5824 14.5994 43.0717 15.7054 47.3966V47.3951Z" fill="#371A45"/>
<g opacity="0.5">
<path d="M82.3849 37.3714C82.9518 33.8364 81.3346 30.6378 78.773 30.227C76.2113 29.8163 73.6751 32.3489 73.1083 35.8839C72.5415 39.4188 74.1586 42.6174 76.7203 43.0282C79.2819 43.439 81.8181 40.9063 82.3849 37.3714Z" fill="white"/>
</g>
<g opacity="0.5">
<path d="M74.6054 49.6239C75.082 48.0462 74.3709 46.4358 73.0172 46.0269C71.6635 45.6179 70.1797 46.5653 69.7032 48.143C69.2266 49.7206 69.9377 51.331 71.2914 51.74C72.6451 52.1489 74.1289 51.2015 74.6054 49.6239Z" fill="white"/>
</g>
<g opacity="0.5">
<path d="M22.805 49.4039C22.805 49.4039 16.5671 30.8571 26.4759 23.2148C36.3846 15.5726 50.8582 15.3101 50.5391 16.245C50.5391 16.245 34.5956 20.4485 28.5831 33.242C23.9454 43.1075 22.805 49.4039 22.805 49.4039Z" fill="white"/>
</g>
<path d="M20.9351 146.503C31.5192 146.503 40.0992 137.923 40.0992 127.339C40.0992 116.755 31.5192 108.175 20.9351 108.175C10.3511 108.175 1.77105 116.755 1.77105 127.339C1.77105 137.923 10.3511 146.503 20.9351 146.503Z" fill="#FFD62C"/>
<path d="M40.0982 127.34C40.0982 137.922 31.5201 146.502 20.9332 146.502C13.5402 146.502 7.12488 142.317 3.9296 136.182C7.36742 141.315 13.2187 144.691 19.8608 144.691C30.4454 144.691 39.0259 136.111 39.0259 125.526C39.0311 122.453 38.2924 119.423 36.873 116.697C38.982 119.845 40.1049 123.551 40.0982 127.34Z" fill="#FFB42E"/>
<g opacity="0.7">
<path d="M39.1918 121.503C36.5625 115.368 30.822 110.882 23.9559 110.031V110.041C23.9863 110.76 22.5711 111.404 20.7972 111.481C19.0234 111.558 17.5591 111.035 17.5282 110.316V110.31C8.88494 112.165 2.40545 119.849 2.40545 129.047C2.40306 131.018 2.7061 132.978 3.30378 134.857C2.2898 132.481 1.76869 129.924 1.77201 127.34C1.77201 116.756 10.3525 108.175 20.937 108.175C29.4838 108.176 36.7256 113.774 39.1918 121.503Z" fill="white"/>
</g>
<path d="M20.9351 147.423C9.86077 147.423 0.85083 138.414 0.85083 127.339C0.85083 116.264 9.86077 107.255 20.9351 107.255C32.0095 107.255 41.0194 116.265 41.0194 127.339C41.0194 138.413 32.0095 147.423 20.9351 147.423ZM20.9351 109.096C10.8756 109.096 2.69172 117.279 2.69172 127.339C2.69172 137.398 10.8756 145.582 20.9351 145.582C30.9946 145.582 39.1785 137.398 39.1785 127.339C39.1785 117.279 30.9946 109.096 20.9351 109.096Z" fill="#371A45"/>
<path d="M20.9351 141.744C28.8909 141.744 35.3403 135.295 35.3403 127.339C35.3403 119.383 28.8909 112.934 20.9351 112.934C12.9794 112.934 6.52996 119.383 6.52996 127.339C6.52996 135.295 12.9794 141.744 20.9351 141.744Z" fill="#FF9C43"/>
<path d="M20.9351 141.744C28.8909 141.744 35.3403 135.295 35.3403 127.339C35.3403 119.383 28.8909 112.934 20.9351 112.934C12.9794 112.934 6.52996 119.383 6.52996 127.339C6.52996 135.295 12.9794 141.744 20.9351 141.744Z" fill="#FF9C43"/>
<path d="M35.3408 127.34C35.3408 135.295 28.8907 141.745 20.9356 141.745C14.4247 141.745 8.92582 137.427 7.14152 131.499C9.30246 136.723 14.449 140.399 20.4572 140.399C28.4142 140.399 34.8623 133.949 34.8623 125.994C34.8644 124.586 34.6591 123.185 34.2531 121.837C34.9747 123.582 35.3443 125.452 35.3408 127.34Z" fill="#FF7A45"/>
<path d="M6.52995 127.339C6.52995 119.384 12.98 112.934 20.9351 112.934C27.446 112.934 32.9449 117.252 34.7292 123.18C32.5682 117.956 27.4217 114.28 21.4135 114.28C13.4565 114.28 7.00836 120.73 7.00836 128.685C7.00635 130.093 7.21161 131.494 7.61755 132.842C6.89604 131.097 6.52643 129.227 6.52995 127.339Z" fill="#FF7A45"/>
<path d="M25.1562 130.227C25.1562 131.958 23.8217 133.292 22.0284 133.71V135.794H19.692V133.668C17.8777 133.188 16.4582 131.749 16.3155 131.603L17.9833 129.935C18.1084 130.081 19.4014 131.436 20.9028 131.436C22.0289 131.436 22.7574 130.874 22.7574 130.248C22.7574 128.371 16.5852 128.016 16.5852 124.43C16.5852 122.699 17.8987 121.365 19.692 120.968V118.883H22.0275V121.01C23.8417 121.49 25.2613 122.907 25.4039 123.055L23.7566 124.723C23.6106 124.556 22.2971 123.263 20.8167 123.263C19.6906 123.263 18.962 123.787 18.962 124.41C18.962 126.286 25.1562 126.64 25.1562 130.227Z" fill="#FFD62C"/>
</svg>
