<svg width="101" height="125" viewBox="0 0 101 125" fill="none" xmlns="http://www.w3.org/2000/svg">
<g id="Group 15">
<path id="Vector" d="M58.1577 53.1397L59.2738 57.1361L59.8409 59.1716L69.6362 94.2752C69.6362 94.2752 71.992 93.4715 75.0637 92.1397C75.665 91.8791 76.2932 91.5991 76.937 91.3001C81.7336 89.0772 87.3672 85.8503 88.739 82.483C90.7886 77.4489 84.6907 58.6417 78.9968 52.3586C76.3881 49.4786 68.762 50.55 63.4949 51.7299C62.906 51.8628 62.3464 51.9957 61.8276 52.1237C59.6384 52.6669 58.1577 53.1397 58.1577 53.1397Z" fill="white"/>
<g id="Group" opacity="0.35">
<path id="Vector_2" d="M59.2738 57.136L59.8409 59.1715L67.6185 87.0443L69.6362 94.2751L69.7784 94.2255L69.8701 94.1932L69.9556 94.1621C69.9787 94.1551 69.9999 94.1462 70.0243 94.1387C70.0332 94.1351 70.0438 94.1325 70.0527 94.1285C70.097 94.1134 70.1413 94.0966 70.1909 94.078C70.2024 94.0751 70.2137 94.0712 70.2246 94.0664C70.2644 94.0518 70.3065 94.0363 70.3522 94.0221C70.4138 94.0004 70.4767 93.9778 70.5431 93.9521C70.5901 93.9335 70.6415 93.9162 70.692 93.8972L70.8511 93.8378C70.9193 93.813 70.9911 93.7851 71.0646 93.759C71.213 93.7022 71.3703 93.6433 71.536 93.5791C71.6827 93.5246 71.8364 93.4648 71.9964 93.4018C72.1811 93.3292 72.3748 93.2547 72.5746 93.175C73.3141 92.8808 74.1572 92.5343 75.0637 92.1413C75.241 92.0651 75.4182 91.9862 75.6003 91.9069C75.7266 91.8516 75.8555 91.7935 75.9844 91.7355C76.2946 91.5963 76.6162 91.451 76.937 91.3017C81.7354 89.0789 87.3672 85.852 88.7372 82.4847C90.4262 78.3394 86.5914 64.8547 82.0026 56.7138C84.9601 64.1626 86.8254 72.5879 85.552 75.712C84.9228 77.257 79.3562 74.42 78.6136 71.9632C76.6991 65.6274 72.9968 57.8844 65.6096 55.012C65.4182 54.9358 62.1825 56.494 59.2738 57.136Z" fill="#371A45"/>
</g>
<path id="Vector_3" d="M69.124 95.2463L57.2374 52.6433L57.9291 52.4218C58.1014 52.3664 62.2131 51.0602 66.9073 50.2951C73.4049 49.2348 77.6601 49.7585 79.556 51.8507C85.4966 58.408 91.5914 77.4763 89.4363 82.7669C86.8418 89.1373 70.5697 94.7523 69.8785 94.988L69.124 95.2463ZM59.081 53.6424L70.1439 93.2928C73.3748 92.1116 85.9959 87.2193 88.0411 82.198C88.9113 80.0611 88.132 74.533 86.0553 68.1196C83.9286 61.5436 81.0088 55.6974 78.4394 52.8622C75.4674 49.5822 64.062 52.1449 59.081 53.6433V53.6424Z" fill="#371A45"/>
<path id="Vector_4" d="M85.268 67.8874L78.6481 70.6314C78.3608 70.7502 78.121 70.961 77.9665 71.2307C77.8119 71.5005 77.7512 71.8139 77.7939 72.1218C78.1187 74.4422 79.1466 79.7616 81.8315 80.7461C84.0602 81.5636 86.8763 80.4541 88.0898 78.4772C89.447 76.2654 87.9826 71.198 87.1359 68.7297C87.0737 68.5481 86.9749 68.3811 86.8456 68.2391C86.7163 68.0971 86.5593 67.9831 86.3843 67.9042C86.2092 67.8253 86.0198 67.7831 85.8278 67.7802C85.6358 67.7773 85.4453 67.8138 85.268 67.8874Z" fill="white"/>
<g id="Group_2" opacity="0.35">
<path id="Vector_5" d="M77.7948 72.1229C78.1178 74.4423 79.147 79.7622 81.832 80.7458C84.061 81.5637 86.8767 80.4543 88.0907 78.4764C88.9241 77.1158 88.6915 74.6749 88.1918 72.4241C88.2445 73.6138 88.0557 74.6559 87.6494 75.4326C85.3225 79.8827 81.4789 76.8061 81.4789 76.8061C81.4789 76.8061 81.3486 77.9035 81.0132 78.0741C79.6105 78.7857 78.3938 74.0613 77.8209 71.6018C77.7786 71.7722 77.7697 71.9491 77.7948 72.1229Z" fill="#371A45"/>
</g>
<path id="Vector_6" d="M83.4093 81.7697C82.7832 81.7733 82.1613 81.6664 81.5724 81.4538C78.6069 80.3665 77.4647 75.2066 77.0478 72.2265C76.982 71.7532 77.0751 71.2714 77.3126 70.8568C77.5501 70.4421 77.9186 70.1181 78.3601 69.9354L84.9795 67.1915C85.2519 67.0783 85.5446 67.0222 85.8396 67.0266C86.1345 67.031 86.4254 67.0958 86.6943 67.2171C86.9632 67.3383 87.2044 67.5134 87.403 67.7315C87.6016 67.9497 87.7533 68.2062 87.8488 68.4853C89.0354 71.946 90.1528 76.557 88.7319 78.8716C87.6286 80.6691 85.482 81.7697 83.4093 81.7697ZM85.8076 68.5331C85.7215 68.5333 85.6363 68.5504 85.5569 68.5836L78.937 71.328C78.8035 71.3824 78.6919 71.4796 78.6197 71.6044C78.5475 71.7292 78.5188 71.8745 78.5383 72.0174C79.1585 76.4525 80.4877 79.4511 82.0894 80.0369C83.9281 80.7112 86.3814 79.8153 87.4456 78.0807C88.2875 76.7072 87.906 73.3014 86.4217 68.9717C86.3779 68.843 86.2951 68.7311 86.1847 68.6517C86.0743 68.5723 85.9418 68.5293 85.8059 68.5287L85.8076 68.5331Z" fill="#371A45"/>
<path id="Vector_7" d="M85.4173 81.2504C85.2846 81.2233 85.154 81.1867 85.0265 81.1409C84.9127 81.1006 84.801 81.0576 84.6951 81.008C84.4832 80.9148 84.278 80.807 84.081 80.6855C83.6951 80.4513 83.3369 80.1742 83.0132 79.8596C82.3837 79.2506 81.8639 78.5376 81.4767 77.7519C81.2879 77.37 81.122 76.9772 80.98 76.5756C80.8258 76.1768 80.719 75.7834 80.6021 75.382C80.4851 74.9805 80.3921 74.5756 80.3145 74.1644C80.2773 73.958 80.2427 73.7515 80.2184 73.5415C80.1901 73.3248 80.1784 73.1064 80.1834 72.8879C80.1847 72.8368 80.2057 72.7882 80.242 72.7522C80.2783 72.7161 80.3271 72.6955 80.3782 72.6946C80.4294 72.6937 80.4789 72.7126 80.5165 72.7473C80.554 72.782 80.5768 72.8298 80.5799 72.8809V72.9026C80.5965 73.0927 80.6261 73.2814 80.6685 73.4675C80.7097 73.6611 80.7616 73.8538 80.8156 74.0461C80.9264 74.4303 81.0575 74.81 81.2015 75.1852C81.3455 75.5605 81.4948 75.9416 81.6716 76.2929C81.8368 76.6487 82.023 76.9945 82.229 77.3283C82.629 77.9799 83.1387 78.5575 83.7354 79.0355C84.0223 79.266 84.3344 79.4631 84.6659 79.623C84.8253 79.7017 84.9901 79.7691 85.159 79.8246C85.2419 79.8538 85.3238 79.876 85.4053 79.8964C85.4724 79.9134 85.5405 79.9262 85.6092 79.9345C85.7836 79.9434 85.9476 80.0202 86.0662 80.1485C86.1848 80.2767 86.2486 80.4462 86.244 80.6208C86.2393 80.7954 86.1667 80.9613 86.0414 81.083C85.9162 81.2048 85.7484 81.2728 85.5737 81.2725C85.5362 81.2714 85.4989 81.2672 85.462 81.2601L85.4173 81.2504Z" fill="#371A45"/>
<path id="Vector_8" d="M68.4031 54.8592C69.2033 54.4685 70.0039 54.1034 70.8152 53.7467C71.6264 53.39 72.443 53.0493 73.272 52.7277C74.1009 52.406 74.9379 52.1007 75.7974 51.8371C76.657 51.5735 77.5312 51.332 78.4643 51.1889C78.662 51.1586 78.8636 51.208 79.0249 51.3264C79.1861 51.4448 79.2937 51.6223 79.324 51.82C79.3543 52.0177 79.3049 52.2194 79.1865 52.3806C79.0682 52.5419 78.8906 52.6495 78.6929 52.6798C78.6756 52.6825 78.6588 52.6842 78.6419 52.686H78.6344C77.8223 52.7525 76.9813 52.9195 76.1475 53.114C75.3136 53.3085 74.478 53.5495 73.6477 53.8052C72.8174 54.0608 71.9911 54.3413 71.1692 54.6355C70.3473 54.9297 69.5272 55.2381 68.723 55.5659H68.719C68.626 55.6023 68.5225 55.6015 68.43 55.5636C68.3376 55.5257 68.2633 55.4537 68.2226 55.3624C68.1819 55.2712 68.1779 55.1678 68.2114 55.0737C68.2449 54.9795 68.3134 54.902 68.4027 54.857L68.4031 54.8592Z" fill="#371A45"/>
<path id="Vector_9" d="M30.4523 57.2145C31.2857 59.0904 32.4803 60.9495 32.86 61.9389L30.9029 65.3882L28.6845 69.2951C27.5674 69.4239 26.493 69.5196 25.4612 69.5822C6.98537 70.724 1.5556 61.8002 0.948598 57.5308C-0.253439 49.0811 4.56268 43.7205 6.7882 41.5393C7.15106 41.1874 7.53233 40.8551 7.93043 40.5437C15.2782 34.7546 34.5095 29.3368 40.07 37.0515C43.2029 41.3935 41.0407 48.833 31.307 51.7697C28.9211 52.4888 29.4054 54.8631 30.4523 57.2145Z" fill="white"/>
<g id="Group_3" opacity="0.35">
<path id="Vector_10" d="M31.7359 59.747C32.2233 60.6385 32.6584 61.4125 32.86 61.9389L28.6845 69.2938C7.60965 71.735 1.58927 62.0377 0.948598 57.5308C0.757979 56.2186 0.711182 54.8895 0.809034 53.5671C0.833402 53.8228 1.28622 57.179 1.34869 57.4373C2.52325 62.2907 13.7058 68.354 16.9273 66.7306C17.7195 66.3319 18.3221 65.8534 18.6885 65.7284C19.3562 65.5011 19.6956 66.4555 20.7319 66.3903C21.681 66.331 21.7771 64.7315 22.5082 64.9358C23.0957 65.0997 23.8174 66.5308 24.6792 66.4816L31.7359 59.747Z" fill="#371A45"/>
</g>
<path id="Vector_11" d="M22.2596 70.441C15.9118 70.441 10.712 69.1743 6.74877 66.655C2.48072 63.9421 0.568886 60.2186 0.201585 57.6382C-0.684546 51.4118 1.35356 45.815 6.26095 41.0024C10.8804 36.4716 23.1816 31.7959 32.1187 32.5589C36.1063 32.8991 38.9862 34.2629 40.6805 36.6112C42.2078 38.7294 42.5724 41.4525 41.6818 44.083C40.4 47.8664 36.6973 50.931 31.5223 52.4915C25.969 54.1663 19.4958 56.9519 18.7217 58.5318C18.6858 58.6054 18.6774 58.6563 18.6823 58.6727C18.7178 58.7651 18.7347 58.8635 18.7322 58.9625C18.7296 59.0614 18.7076 59.1588 18.6674 59.2492C18.6272 59.3396 18.5695 59.4212 18.4978 59.4894C18.426 59.5575 18.3416 59.6109 18.2492 59.6464C18.1568 59.6819 18.0584 59.6988 17.9595 59.6962C17.8605 59.6937 17.7631 59.6717 17.6727 59.6315C17.5823 59.5912 17.5007 59.5336 17.4325 59.4619C17.3644 59.3901 17.3111 59.3056 17.2756 59.2133C17.1621 58.9182 17.0864 58.445 17.3686 57.8686C18.8932 54.7569 30.5901 51.1986 31.0873 51.0489C35.79 49.6311 39.1311 46.9155 40.2543 43.5996C40.9871 41.4366 40.6973 39.2106 39.4568 37.4929C38.0323 35.5168 35.5197 34.3617 31.9889 34.0604C23.583 33.3422 11.6158 37.8597 7.315 42.0799C2.77092 46.5367 0.879032 51.7002 1.69383 57.4246C2.3828 62.2691 8.89276 70.8278 28.5985 68.5456C28.6969 68.5342 28.7964 68.5423 28.8916 68.5694C28.9868 68.5965 29.0757 68.6421 29.1532 68.7035C29.2308 68.765 29.2955 68.8412 29.3436 68.9276C29.3917 69.0141 29.4224 69.1092 29.4337 69.2075C29.4451 69.3058 29.437 69.4054 29.4099 69.5005C29.3828 69.5957 29.3372 69.6846 29.2757 69.7622C29.2143 69.8397 29.1381 69.9044 29.0517 69.9525C28.9652 70.0007 28.8701 70.0313 28.7718 70.0427C26.6105 70.3002 24.4362 70.4332 22.2596 70.441Z" fill="#371A45"/>
<path id="Vector_12" d="M99.2906 34.837C99.0331 36.199 98.4855 37.6762 97.6277 39.2234C91.3592 50.5282 69.3655 59.5012 69.3655 59.5012C69.3655 59.5012 70.614 63.4188 73.3172 70.3869C73.3801 70.5499 73.4443 70.713 73.509 70.8795C74.3438 73.0191 75.311 75.4338 76.4155 78.0989C77.7088 81.2189 79.1922 84.685 80.8759 88.4555C84.918 97.5198 88.3969 109.473 88.3969 109.473C88.3969 109.473 98.0557 112.755 97.9171 118.721C97.9097 119.05 97.8734 119.377 97.8085 119.699C96.6734 125.435 74.5476 124.234 72.6911 121.518C70.4687 118.265 69.5728 115.45 67.381 110.504C65.7576 106.842 64.0398 103.061 60.26 99.9934C55.9858 96.8516 48.9583 96.8162 44.416 97.2353C37.8857 97.8392 36.8072 101.875 35.9862 104.799C34.6163 109.666 35.4377 119.693 30.7913 122.553C28.2512 124.117 7.31899 126.537 6.10101 119.352C5.85422 117.89 6.11385 116.669 6.65705 115.655C8.44216 112.318 13.2968 111.22 13.2968 111.22C13.2968 111.22 12.8095 103.354 13.2902 99.0271C14.4714 88.3337 27.77 83.4312 27.77 83.4312C27.77 83.4312 27.7257 82.3953 27.2215 79.0448C26.6012 74.9052 25.9486 71.7121 25.4621 69.5823C24.9964 67.5508 24.6796 66.4808 24.6796 66.4808L23.4506 62.8813L22.7567 60.8472L30.4532 57.2141L59.5737 43.4613C60.5201 42.8734 61.5711 42.1764 62.7035 41.4104C71.322 35.5619 84.704 25.5291 93.5351 26.7781C98.0345 27.4153 100.099 30.5677 99.2906 34.837Z" fill="white"/>
<g id="Group_4" opacity="0.35">
<path id="Vector_13" d="M99.2906 34.8369C99.0331 36.1989 98.4855 37.6761 97.6277 39.2233C91.3592 50.5281 69.3655 59.5011 69.3655 59.5011C69.3655 59.5011 70.614 63.4186 73.3172 70.3867L71.9091 71.031C70.2853 66.0106 64.8719 68.7425 64.5135 66.7128C64.3327 65.6889 67.5307 64.688 66.5219 62.7563C65.513 60.8245 60.6069 62.0305 60.6902 60.4714C60.7558 59.2751 63.4133 59.4603 65.2432 58.9765C67.073 58.4926 64.2587 55.8821 64.0637 55.0292C63.7567 53.696 66.7062 54.8449 70.2445 54.5755C84.7611 53.4754 95.4802 40.2512 99.2906 34.8369Z" fill="#371A45"/>
</g>
<g id="Group_5" opacity="0.35">
<path id="Vector_14" d="M97.9171 118.72C97.9097 119.048 97.8734 119.375 97.8085 119.697C96.6734 125.433 74.5476 124.233 72.6911 121.516C70.4687 118.264 69.5728 115.449 67.381 110.503C65.7576 106.841 64.0398 103.059 60.26 99.9921C55.9858 96.8503 48.9583 96.8148 44.416 97.234C37.8857 97.8379 36.8072 101.874 35.9862 104.798C34.6163 109.665 35.4377 119.691 30.7913 122.552C28.2512 124.116 7.31899 126.536 6.10101 119.351C5.85422 117.889 6.11385 116.668 6.65705 115.654C6.88922 117.022 7.95081 118.526 11.0168 119.499C17.9074 121.686 29.513 122.093 31.0748 117.088C32.6367 112.082 31.6149 107.487 31.6725 103.215C31.7168 99.8197 31.3061 95.4094 33.5024 94.0678C34.6544 93.3634 36.0678 94.954 37.8617 94.7298C39.6557 94.5056 39.6783 90.4196 40.9437 90.362C42.5046 90.2889 42.2654 93.0377 45.5303 94.1347C48.478 95.125 56.0376 94.9646 58.7186 92.3124C61.2786 89.7798 60.435 94.2832 61.1112 95.5867C62.4129 98.1002 67.5852 93.9207 68.3225 95.8303C68.661 96.7089 67.392 99.9469 68.0061 103.738C68.7709 108.479 71.7199 116.587 77.5848 119.609C81.7496 121.758 93.5143 122.223 97.9171 118.72Z" fill="#371A45"/>
</g>
<path id="Vector_15" d="M18.7355 125C15.1023 125 11.4395 124.581 8.87592 123.419C6.82674 122.489 5.64154 121.164 5.35665 119.476C4.48248 114.316 9.34424 111.55 12.5082 110.644C12.4041 108.683 12.1329 102.622 12.5396 98.9425C13.6353 89.0342 24.389 84.0067 26.9712 82.9367C26.9114 82.3346 26.7758 81.1644 26.4745 79.1565C25.2844 71.2207 23.9685 66.7426 23.9552 66.6979C23.8983 66.5063 23.9199 66.3 24.0152 66.1243C24.1104 65.9486 24.2716 65.8179 24.4632 65.761C24.6548 65.7042 24.8611 65.7257 25.0368 65.821C25.2125 65.9163 25.3432 66.0774 25.4001 66.269C25.455 66.4533 26.7572 70.8804 27.965 78.9327C28.4674 82.2832 28.5197 83.3532 28.5215 83.397L28.5463 83.9473L28.0297 84.1383C27.9012 84.1857 15.1542 89.012 14.0376 99.1082C13.572 103.317 14.043 111.094 14.0478 111.172L14.0868 111.812L13.4617 111.954C13.1537 112.024 5.91403 113.743 6.8427 119.224C7.03986 120.388 7.93308 121.337 9.49799 122.047C15.615 124.818 28.7891 122.899 30.3952 121.911C33.3075 120.117 33.8746 114.888 34.3752 110.274C34.6061 108.147 34.8236 106.142 35.2614 104.593L35.2822 104.518C36.109 101.577 37.358 97.1308 44.3486 96.4843C48.4669 96.1037 56.0686 95.9739 60.7084 99.3855L60.7363 99.4077C64.7199 102.638 66.5002 106.654 68.0713 110.197C68.6397 111.479 69.1284 112.637 69.56 113.657C70.8072 116.608 71.7084 118.74 73.3136 121.091C74.233 122.436 84.5892 123.927 92.0593 122.4C95.0487 121.788 96.8284 120.777 97.0712 119.552C98.2312 113.692 88.2542 110.219 88.1554 110.185L87.7846 110.059L87.6747 109.682C87.6402 109.563 84.1634 97.6748 80.1869 88.7617C72.2605 70.9925 68.6836 59.8392 68.6481 59.7285L68.4372 59.0639L69.0815 58.8007C69.299 58.7121 90.9016 49.7972 96.968 38.8548C98.7846 35.5787 99.2015 32.6027 98.1421 30.4755C97.3411 28.8667 95.7119 27.8459 93.4301 27.5234C85.7744 26.4418 74.2631 34.3705 65.8573 40.1605C63.6969 41.6487 61.6561 43.0541 59.972 44.1007C59.8023 44.2061 59.5976 44.2398 59.403 44.1944C59.2084 44.1489 59.0398 44.028 58.9344 43.8583C58.8289 43.6886 58.7952 43.4839 58.8406 43.2893C58.8861 43.0947 59.007 42.9261 59.1767 42.8206C60.8307 41.7927 62.8573 40.3971 65.0026 38.9194C73.6127 32.989 85.4053 24.8658 93.641 26.0311C96.4359 26.4263 98.4589 27.7307 99.4895 29.8034C100.774 32.3882 100.349 35.8623 98.2844 39.5858C92.4948 50.0275 74.0704 58.3129 70.2981 59.9225C71.1749 62.545 74.7558 72.888 81.5613 88.1458C85.1825 96.2632 88.3867 106.799 89.0097 108.89C90.9888 109.634 99.832 113.347 98.5462 119.842C98.1678 121.755 96.0859 123.111 92.3588 123.874C85.7873 125.22 73.758 124.416 72.0664 121.939C70.3748 119.462 69.4501 117.273 68.1674 114.242C67.7385 113.226 67.252 112.076 66.6889 110.806C65.1887 107.422 63.4886 103.588 59.797 100.587C55.5569 97.4812 48.3845 97.6221 44.4829 97.9828C38.5241 98.5339 37.5268 102.077 36.7292 104.924L36.708 104.999C36.3066 106.427 36.0952 108.373 35.8719 110.434C35.3336 115.392 34.7239 121.012 31.1834 123.191C29.8715 124.003 24.3389 125 18.7355 125Z" fill="#371A45"/>
<g id="Group_6" opacity="0.35">
<path id="Vector_16" d="M62.7026 40.7462C61.4793 51.114 54.891 59.413 46.1019 63.1029C45.6171 63.3058 45.125 63.4956 44.6256 63.6722C42.08 64.5645 39.4133 65.0638 36.7173 65.153C35.2492 65.2042 33.7793 65.1352 32.3225 64.9465C31.8449 64.8818 31.3713 64.8091 30.9047 64.725C30.8914 64.725 30.8799 64.7196 30.8666 64.7179C28.2881 64.2445 25.7909 63.4034 23.4515 62.2203C20.6583 60.8057 18.1204 58.9356 15.9419 56.6869C11.5042 52.1119 8.68977 46.2075 7.93042 39.8792C15.2782 34.0901 34.5095 28.6723 40.07 36.3869C43.2029 40.729 41.0407 48.1685 31.307 51.1051C28.9224 51.8233 29.4067 54.1977 30.4537 56.5491L59.5742 42.7963C60.5192 42.2092 61.5702 41.5141 62.7026 40.7462Z" fill="#371A45"/>
</g>
<path id="Vector_17" d="M13.0731 52.2629C16.7012 55.9129 21.2075 58.5678 26.1586 59.9722C27.1994 60.2675 28.2553 60.5071 29.3216 60.69C29.8453 60.7813 30.3775 60.8566 30.9167 60.9226C33.8546 61.2679 36.8273 61.1817 39.7403 60.667C41.3173 60.3874 42.8692 59.9815 44.381 59.453C44.9277 59.2604 45.4675 59.0536 46.0004 58.8327C55.7478 54.776 63.0801 45.7179 64.3987 34.4831C66.3446 17.9364 54.5068 2.94703 37.9623 1.00064C34.8604 0.633158 31.7202 0.750496 28.6544 1.34845C28.3044 1.41402 27.9548 1.48978 27.6074 1.57264C26.677 1.78797 25.7628 2.04613 24.8648 2.34712C20.7416 3.73484 16.9652 5.99362 13.7922 8.97006C13.2915 9.43971 12.8065 9.92708 12.3372 10.4322C7.97799 15.1233 5.22606 21.0808 4.48028 27.441C3.35844 36.9594 6.80017 45.9607 13.0731 52.2629Z" fill="white"/>
<path id="Vector_18" d="M34.4594 61.2114C33.2716 61.2112 32.0848 61.1417 30.9051 61.0031C30.3145 60.9305 29.7922 60.8538 29.3101 60.7696C28.241 60.5861 27.1824 60.3461 26.1386 60.0505C21.1764 58.6372 16.6594 55.9753 13.019 52.319C6.45723 45.7262 3.31589 36.6553 4.40096 27.4316C5.14816 21.0546 7.90676 15.0813 12.2769 10.3775C12.7377 9.88132 13.2286 9.38907 13.7355 8.91543C16.917 5.9313 20.7033 3.66651 24.8374 2.27476C25.7332 1.97481 26.6584 1.7134 27.5875 1.49851C27.9574 1.4099 28.3008 1.33635 28.6375 1.27388C31.7114 0.673285 34.86 0.554898 37.9703 0.922971C54.5338 2.87246 66.4244 17.9318 64.4767 34.4941C63.2024 45.3492 56.1342 54.7032 46.0301 58.907C45.4984 59.1285 44.9512 59.3363 44.4062 59.5273C41.6089 60.5038 38.6826 61.0616 35.7222 61.1826C35.301 61.2018 34.88 61.2114 34.4594 61.2114ZM13.1298 52.2065C16.7508 55.8437 21.2441 58.4915 26.1803 59.8968C27.2184 60.1911 28.2715 60.4301 29.3349 60.6128C29.817 60.6965 30.3367 60.7723 30.9242 60.8445C35.4536 61.3825 40.046 60.8813 44.3526 59.3788C44.8945 59.1879 45.4381 58.9801 45.9681 58.7585C56.019 54.5764 63.05 45.2712 64.3172 34.4737C66.2547 17.9987 54.4266 3.01823 37.9508 1.07981C34.8565 0.713437 31.724 0.831076 28.6659 1.42851C28.3314 1.49098 27.9902 1.56364 27.6225 1.65004C26.6978 1.86404 25.778 2.12412 24.8865 2.42275C20.7744 3.80716 17.0081 6.05984 13.8431 9.02797C13.3389 9.50116 12.8507 9.99075 12.3921 10.4843C8.04458 15.1632 5.29996 21.105 4.55603 27.4484C3.47628 36.6234 6.60122 45.6469 13.1285 52.2047L13.1298 52.2065Z" fill="#371A45"/>
<g id="Group_7" opacity="0.35">
<path id="Vector_19" d="M64.396 34.4843C63.0788 45.7178 55.7465 54.7767 45.9977 58.8339C45.4661 59.0551 44.9266 59.2619 44.3792 59.4542C40.06 60.9572 35.4559 61.4601 30.914 60.9252C30.3775 60.8574 29.8458 60.7829 29.3216 60.693C28.2553 60.5087 27.1993 60.2685 26.1581 59.9735C21.2069 58.5694 16.7005 55.9144 13.0726 52.2641C11.1155 50.2984 9.43709 48.0738 8.08416 45.6522C12.4246 49.8121 17.9108 52.5776 23.8365 53.5929C24.3589 53.6841 24.8905 53.7581 25.4289 53.825C29.97 54.3649 34.5745 53.8623 38.8923 52.3554C39.4399 52.1619 39.9799 51.9551 40.5121 51.7351C50.2596 47.6797 57.5919 38.6204 58.9109 27.3855C59.6613 21.0864 58.3968 14.7114 55.299 9.17554C61.8909 15.4932 65.5453 24.7178 64.396 34.4843Z" fill="#371A45"/>
</g>
<path id="Vector_20" d="M34.4594 61.7458C33.2507 61.7456 32.0431 61.6748 30.8427 61.5336C30.2401 61.4596 29.7093 61.3821 29.2162 61.2961C28.129 61.1094 27.0525 60.8652 25.9911 60.5646C20.9406 59.1265 16.3432 56.4174 12.638 52.6962C5.96055 45.9873 2.76383 36.756 3.86839 27.3697C4.62959 20.8806 7.43754 14.8026 11.8852 10.0166C12.3544 9.5115 12.8542 9.00994 13.3704 8.52612C16.608 5.48924 20.4613 3.18467 24.6686 1.76892C25.5804 1.46321 26.5223 1.19737 27.4674 0.978495C27.8431 0.889882 28.1949 0.813231 28.5405 0.748987C31.6669 0.139258 34.8691 0.0196773 38.0323 0.394534C54.8887 2.3777 66.9893 17.7038 65.007 34.5584C63.7106 45.6045 56.5174 55.1242 46.2352 59.4029C45.6929 59.6271 45.1377 59.8398 44.5839 60.0352C41.7358 61.0288 38.7565 61.5961 35.7425 61.7188C35.3163 61.7365 34.8886 61.7455 34.4594 61.7458ZM13.5082 51.83C17.0648 55.4021 21.478 58.0026 26.3261 59.383C27.3467 59.6723 28.3819 59.907 29.4275 60.0861C29.902 60.169 30.4129 60.2434 30.9915 60.3147C33.8683 60.6524 36.779 60.5679 39.6313 60.064C41.1758 59.7896 42.6958 59.392 44.1767 58.8748C44.7084 58.6873 45.2432 58.4827 45.7642 58.2669C55.6357 54.1592 62.5423 45.0192 63.7873 34.4136C65.6924 18.231 54.0722 3.51637 37.8887 1.61208C34.8501 1.25156 31.7738 1.36651 28.7705 1.9528C28.4395 2.01438 28.1059 2.08571 27.7479 2.17123C26.8365 2.38257 25.9313 2.63778 25.0576 2.93109C21.0184 4.29115 17.3189 6.50392 14.21 9.41934C13.7146 9.88411 13.2352 10.3653 12.7851 10.85C8.51399 15.4453 5.81785 21.2818 5.08771 27.5128C4.02745 36.5252 7.09657 45.3883 13.5082 51.83Z" fill="#371A45"/>
<path id="Vector_21" d="M34.4594 61.9239C33.2438 61.9237 32.0292 61.8523 30.8219 61.7103C30.2153 61.6359 29.6818 61.5579 29.1861 61.4715C28.0926 61.2837 27.0098 61.038 25.9424 60.7355C20.8626 59.289 16.2385 56.5643 12.5117 52.8215C5.79573 46.0741 2.58085 36.7896 3.69161 27.3488C4.45662 20.8209 7.28108 14.7064 11.7554 9.89199C12.2277 9.38335 12.7302 8.87914 13.2494 8.39266C16.5055 5.33929 20.3804 3.02208 24.611 1.59825C25.5285 1.29076 26.4758 1.02226 27.4266 0.800727C27.8037 0.712114 28.1586 0.63502 28.5068 0.569889C31.6508 -0.0427455 34.871 -0.162327 38.0518 0.215436C55.0061 2.20923 67.1767 17.6253 65.1829 34.5774C63.879 45.6873 56.6442 55.2619 46.3026 59.5663C45.7572 59.7918 45.1989 60.0058 44.6424 60.2021C41.7776 61.2025 38.7807 61.7737 35.7487 61.8973C35.3207 61.9147 34.891 61.9236 34.4594 61.9239ZM13.6353 51.7041C17.1704 55.2546 21.5566 57.8395 26.3752 59.2118C27.3892 59.4989 28.4177 59.7322 29.4563 59.9106C29.9282 59.9925 30.4364 60.067 31.0119 60.1378C32.5623 60.3204 34.1247 60.3797 35.6845 60.3151C38.5598 60.1983 41.402 59.6566 44.1187 58.7076C44.6468 58.5215 45.1785 58.3182 45.6965 58.1037C55.5086 54.0209 62.3734 44.9354 63.6109 34.394C65.5024 18.3107 53.9521 3.68287 37.8688 1.79009C34.8486 1.43223 31.791 1.54643 28.8059 2.12859C28.4767 2.19018 28.1471 2.26151 27.7904 2.3457C26.8834 2.55615 25.9853 2.80959 25.1156 3.09891C21.1006 4.45046 17.4234 6.64998 14.3336 9.54817C13.8405 10.0103 13.3642 10.4884 12.9158 10.97C8.67054 15.5377 5.99083 21.3391 5.26538 27.5326C4.21133 36.4906 7.26184 45.2996 13.6349 51.7032L13.6353 51.7041Z" fill="#371A45"/>
<path id="Vector_22" d="M19.1843 56.9974C39.6278 63.8454 60.198 48.6022 55.3876 27.7994C52.1147 13.6448 35.7288 5.92079 22.3349 9.93497C12.5875 12.8561 4.34646 19.9726 4.74522 36.3417C4.74522 36.3417 6.0403 43.5606 9.3088 47.6576C12.5773 51.7546 16.4466 55.1897 16.4466 55.1897L19.1843 56.9974Z" fill="#371A45"/>
<path id="Vector_23" d="M55.3863 27.7977C60.1971 48.6023 39.6265 63.845 19.1838 56.9983L18.6296 56.6302C38.2631 54.4591 53.5578 37.814 49.0855 16.6882C52.1187 19.6754 54.3757 23.4299 55.3863 27.7977Z" fill="#220F2D"/>
<path id="Vector_24" d="M34.4594 61.9238C33.2438 61.9236 32.0292 61.8523 30.8219 61.7102C30.2153 61.6358 29.6818 61.5578 29.1861 61.4714C28.0926 61.2836 27.0098 61.038 25.9424 60.7355C20.8626 59.289 16.2385 56.5642 12.5117 52.8214C5.79573 46.074 2.58085 36.7896 3.69161 27.3483C4.32852 21.8974 6.40611 16.7147 9.71066 12.3332L9.76028 12.2676L9.82231 12.2136C12.8294 9.59419 16.6243 7.58577 21.1023 6.24372C29.0775 3.85117 38.3478 5.0439 45.8976 9.42892C52.8356 13.4608 57.5786 19.6637 59.2521 26.9048C61.0686 34.7723 59.8568 42.3106 55.7425 48.7036C51.4417 55.3881 44.2002 60.1905 35.8746 61.8799L35.7505 61.895C35.3221 61.9145 34.891 61.9238 34.4594 61.9238ZM13.6353 51.704C17.1704 55.2545 21.5566 57.8394 26.3752 59.2118C27.3892 59.4989 28.4177 59.7321 29.4563 59.9105C29.9282 59.9925 30.4364 60.0669 31.0119 60.1378C32.5409 60.317 34.0816 60.3762 35.6198 60.315C43.5033 58.6992 50.3486 54.1564 54.4089 47.8467C58.2866 41.821 59.4271 34.7014 57.7071 27.2601C56.136 20.4533 51.6575 14.6066 45.1036 10.7989C37.926 6.62919 29.124 5.49406 21.5587 7.76122C17.3292 9.02884 13.7527 10.9101 10.9251 13.354C7.81917 17.4971 5.86634 22.3891 5.26538 27.5321C4.21133 36.49 7.26184 45.2991 13.6349 51.7027L13.6353 51.704Z" fill="#371A45"/>
<path id="Vector_25" d="M29.2224 59.4427C25.7234 59.4371 22.2483 58.8649 18.9322 57.7484L18.8334 57.7152L15.922 55.7772C15.7621 55.6355 11.9637 52.2518 8.69073 48.1485C5.33628 43.9434 4.02126 36.7817 3.96676 36.4791L3.9548 36.3581C3.60655 22.0347 9.71465 12.8885 22.1076 9.17426C29.2268 7.04046 37.4989 8.10248 44.2361 12.0152C50.4297 15.6129 54.6641 21.1543 56.1586 27.6191C58.3167 36.9527 55.6101 45.8885 48.7328 52.1352C43.467 56.9186 36.4944 59.4427 29.2224 59.4427ZM19.5339 56.2792C29.607 59.6173 40.3783 57.5841 47.6686 50.9624C54.1089 45.114 56.6411 36.7338 54.6158 27.9753C53.2206 21.9416 49.2521 16.76 43.4408 13.3847C37.0753 9.68778 29.2702 8.68068 22.5627 10.6909C10.9544 14.1694 5.22817 22.7711 5.53743 36.2558C5.66725 36.9354 6.97651 43.4587 9.92954 47.1605C12.9384 50.9328 16.5148 54.18 16.9335 54.5561L19.5339 56.2792Z" fill="#371A45"/>
<path id="Vector_26" d="M67.9897 31.7878C67.2503 33.693 65.9764 35.1768 64.2622 35.8906C60.2565 37.5574 55.3655 34.374 53.3371 28.7812C53.1701 28.3204 53.027 27.857 52.9091 27.3953C51.5883 22.2442 53.2423 17.1605 56.9175 15.6314C60.9233 13.9642 65.8161 17.1458 67.8444 22.7404C69.0052 25.9416 68.9769 29.2393 67.9897 31.7878Z" fill="white"/>
<g id="Group_8" opacity="0.35">
<path id="Vector_27" d="M67.9897 31.7878C67.2503 33.6929 65.9765 35.1768 64.2622 35.8905C60.2565 37.5574 55.3655 34.3739 53.3371 28.7811C53.1701 28.3203 53.027 27.8569 52.9091 27.3952C53.8617 28.2233 55.8422 29.3447 57.6694 26.5609L62.2773 26.4258C62.2773 26.4258 65.8254 28.4603 67.9897 31.7878Z" fill="#371A45"/>
</g>
<path id="Vector_28" d="M62.0323 37.1287C61.0261 37.1287 59.9942 36.9032 58.9716 36.453C56.1776 35.2244 53.8524 32.5266 52.5914 29.0503C50.4244 23.0733 52.2281 16.7255 56.6123 14.9005C58.3642 14.1712 60.299 14.2293 62.2082 15.0689C65.0022 16.2971 67.3274 18.9953 68.5883 22.4712C70.7554 28.4486 68.9517 34.7964 64.5675 36.6214C63.7645 36.9571 62.9027 37.1296 62.0323 37.1287ZM59.1488 15.9798C58.4878 15.9785 57.8331 16.1086 57.2228 16.3626C53.6083 17.8691 52.1993 23.3188 54.0824 28.5106C55.1798 31.5363 57.2463 33.9634 59.6105 35.0033C61.1138 35.6639 62.6176 35.7175 63.9601 35.1593C67.5746 33.6528 68.9835 28.2031 67.1005 23.0113C66.0022 19.9856 63.9339 17.5585 61.5711 16.5186C60.7549 16.1597 59.9384 15.9798 59.1488 15.9798Z" fill="#371A45"/>
<path id="Vector_29" d="M65.4804 34.0252C68.8884 33.1146 70.6616 28.6731 69.441 24.1048C68.2203 19.5365 64.4681 16.5714 61.0601 17.482C57.652 18.3927 55.8788 22.8342 57.0995 27.4025C58.3201 31.9708 62.0724 34.9359 65.4804 34.0252Z" fill="white"/>
<path id="Vector_30" d="M64.2516 34.2638C64.0103 34.2636 63.7693 34.247 63.5303 34.2141C59.8808 33.7161 56.7899 29.5176 56.6402 24.8544C56.5564 22.243 57.4 19.9412 58.9556 18.5389C60.1005 17.507 61.5042 17.0697 63.0137 17.2762C66.6632 17.7742 69.754 21.9727 69.9038 26.6359C69.9875 29.2469 69.1439 31.5491 67.5883 32.951C66.6282 33.8167 65.4847 34.2638 64.2516 34.2638ZM62.2946 17.3923C61.101 17.3923 59.996 17.8243 59.0668 18.6621C57.548 20.0316 56.7239 22.2864 56.8072 24.8491C56.9548 29.4348 59.9813 33.5624 63.5542 34.0498C65.0163 34.2483 66.3717 33.8282 67.4793 32.8282C68.9982 31.4587 69.8223 29.2035 69.739 26.6413C69.5914 22.0551 66.5648 17.9275 62.992 17.4401C62.7608 17.4085 62.5279 17.3925 62.2946 17.3923Z" fill="#371A45"/>
<g id="Group_9" opacity="0.35">
<path id="Vector_31" d="M58.836 31.2111C57.9277 29.8672 57.3854 28.2691 57.2033 26.6497C59.5321 29.5403 63.0225 29.7981 65.2547 27.1278C66.6973 25.4025 67.2813 22.85 66.9982 20.344C67.1461 20.5257 67.2888 20.721 67.4266 20.9244C69.7376 24.3484 69.6862 29.4268 67.315 32.2669C64.9437 35.1069 61.1457 34.6333 58.836 31.2111Z" fill="#371A45"/>
</g>
<path id="Vector_32" d="M64.5985 34.9101C63.8506 34.9101 63.081 34.7422 62.3145 34.4068C60.0584 33.4205 58.0797 31.0683 57.0221 28.1152C55.2197 23.0833 56.5081 17.9925 59.9552 16.5255C61.2551 15.9721 62.7022 16.0125 64.1408 16.6416C66.3969 17.6279 68.3752 19.9801 69.4333 22.9332C71.2352 27.965 69.9472 33.0559 66.5002 34.5229C65.899 34.7793 65.2521 34.911 64.5985 34.9101ZM61.8559 17.7258C61.4159 17.7242 60.9802 17.812 60.575 17.9837C57.9437 19.1037 57.0185 23.4094 58.513 27.5822C59.4262 30.1325 61.0828 32.1418 62.9485 32.9571C63.9778 33.4068 64.9911 33.4444 65.8794 33.0669C68.5108 31.9464 69.4359 27.6407 67.9414 23.4684C67.0278 20.9181 65.3717 18.9088 63.5059 18.0935C62.9454 17.8472 62.3894 17.7258 61.8559 17.7258Z" fill="#371A45"/>
<g id="Group_10" opacity="0.5">
<path id="Vector_33" d="M31.2587 13.6085C31.2587 13.6085 18.9698 18.1623 14.2406 27.4397C14.2352 27.4494 14.2304 27.4592 14.2255 27.4689C13.2344 29.4247 12.7821 31.6091 12.9149 33.7977C13.0868 36.6913 13.6296 38.6599 14.1737 40.3745C15.8316 45.5885 17.5853 47.7214 17.5853 47.7214C13.7439 45.9098 11.0784 43.3134 9.65439 38.9842C9.51527 38.5571 9.38737 38.1122 9.2707 37.6497C9.24323 37.5433 9.21886 37.4374 9.19538 37.3307C9.19538 37.3307 9.19538 37.3276 9.19538 37.324C8.97962 36.1181 8.8364 34.9003 8.76649 33.6772C8.51881 29.3449 9.13202 23.398 13.3859 19.3737C21.3376 11.8522 31.5148 12.9275 31.2587 13.6085Z" fill="white"/>
</g>
<g id="Group_11" opacity="0.5">
<path id="Vector_34" d="M47.2388 27.2617C49.1147 26.0615 49.5017 23.3165 48.1032 21.1306C46.7047 18.9447 44.0503 18.1455 42.1743 19.3457C40.2984 20.5459 39.9114 23.2909 41.3099 25.4768C42.7084 27.6627 45.3628 28.4619 47.2388 27.2617Z" fill="white"/>
</g>
<g id="Group_12" opacity="0.5">
<path id="Vector_35" d="M50.4868 32.0211C51.2168 31.4618 51.2802 30.3189 50.6285 29.4683C49.9767 28.6178 48.8567 28.3816 48.1268 28.9409C47.3968 29.5002 47.3334 30.6431 47.9851 31.4937C48.6368 32.3443 49.7569 32.5804 50.4868 32.0211Z" fill="white"/>
</g>
<path id="Vector_36" d="M27.7239 81.6335C29.9292 81.6335 31.7169 79.8458 31.7169 77.6406C31.7169 75.4354 29.9292 73.6477 27.7239 73.6477C25.5187 73.6477 23.731 75.4354 23.731 77.6406C23.731 79.8458 25.5187 81.6335 27.7239 81.6335Z" fill="white"/>
<g id="Group_13" opacity="0.35">
<path id="Vector_37" d="M23.8148 78.4503C23.9136 78.971 24.1151 79.4669 24.4075 79.9089C24.6999 80.351 25.0774 80.7304 25.5179 81.0251C25.9585 81.3198 26.4533 81.5238 26.9735 81.6253C27.4937 81.7268 28.0289 81.7237 28.5479 81.6162C29.0669 81.5087 29.5594 81.299 29.9965 80.9992C30.4336 80.6995 30.8067 80.3157 31.094 79.8703C31.3813 79.4249 31.577 78.9268 31.6698 78.4049C31.7626 77.8831 31.7506 77.348 31.6344 76.8309C31.5162 76.2518 31.2694 75.7067 30.9122 75.2358C30.734 75.9707 30.3508 76.6399 29.8073 77.1656C29.2637 77.6912 28.582 78.0518 27.8416 78.2053C27.1011 78.3587 26.3323 78.2989 25.6246 78.0326C24.9168 77.7663 24.2992 77.3046 23.8436 76.7011C23.7031 77.2746 23.6933 77.8724 23.8148 78.4503Z" fill="#371A45"/>
</g>
<path id="Vector_38" d="M27.723 82.3877C26.6319 82.386 25.5746 82.009 24.7285 81.3201C23.8824 80.6311 23.299 79.6721 23.0762 78.6039C22.8779 77.6448 22.9815 76.6478 23.3725 75.7498C23.7635 74.8519 24.4229 74.0969 25.2601 73.5887C26.0973 73.0804 27.0713 72.8437 28.0484 72.9112C29.0255 72.9786 29.9578 73.3468 30.7173 73.9652C31.4768 74.5836 32.0262 75.4219 32.2902 76.3651C32.5542 77.3083 32.5198 78.31 32.1918 79.2329C31.8637 80.1557 31.258 80.9544 30.4579 81.5192C29.6578 82.0841 28.7025 82.3875 27.723 82.3877ZM24.5516 78.2982C24.7038 79.0322 25.1059 79.6906 25.6892 80.1614C26.2725 80.6322 27.001 80.8862 27.7505 80.8801C28.5001 80.874 29.2243 80.6082 29.7999 80.128C30.3755 79.6478 30.7667 78.9829 30.9071 78.2465C31.0474 77.5102 30.928 76.748 30.5694 76.0898C30.2107 75.4316 29.635 74.9181 28.9402 74.6368C28.2454 74.3554 27.4745 74.3237 26.759 74.547C26.0434 74.7703 25.4274 75.2348 25.0159 75.8614C24.5443 76.58 24.3773 77.4565 24.5516 78.2982Z" fill="#371A45"/>
<path id="Vector_39" d="M32.7067 87.6212L52.8772 86.0514C55.2649 85.8666 57.0682 83.7603 56.8825 81.3699L56.0474 70.6362C55.8843 68.5432 54.249 66.9025 52.2405 66.6513C51.9503 66.6145 51.6571 66.6077 51.3655 66.6309L31.1976 68.2003C28.805 68.3855 27.004 70.4918 27.1927 72.8817L27.8524 81.3832L28.0252 83.6158C28.2104 86.0062 30.319 87.8059 32.7067 87.6212Z" fill="white"/>
<path id="Vector_40" d="M72.6357 67.8096C72.6357 67.8096 75.3127 67.7556 76.1204 70.8446C76.6357 72.8141 75.5267 75.0577 75.5267 75.0577C75.5267 75.0577 68.151 79.2088 55.5059 79.2718C55.5059 79.2718 51.4962 75.7436 55.19 72.1517C55.19 72.1517 66.7159 71.1822 72.6357 67.8096Z" fill="white"/>
<path id="Vector_41" d="M32.7067 87.6212L52.8772 86.0514C55.2649 85.8666 57.0682 83.7603 56.8825 81.3699L56.0474 70.6362C55.8843 68.5432 54.249 66.9025 52.2405 66.6513C51.9503 66.6145 51.6571 66.6077 51.3655 66.6309L31.1976 68.2003C28.805 68.3855 27.004 70.4918 27.1927 72.8817L27.8524 81.3832L28.0252 83.6158C28.2104 86.0062 30.319 87.8059 32.7067 87.6212Z" fill="white"/>
<path id="Vector_42" d="M72.6357 67.8096C72.6357 67.8096 75.3127 67.7556 76.1204 70.8446C76.6357 72.8141 75.5267 75.0577 75.5267 75.0577C75.5267 75.0577 68.151 79.2088 55.5059 79.2718C55.5059 79.2718 51.4962 75.7436 55.19 72.1517C55.19 72.1517 66.7159 71.1822 72.6357 67.8096Z" fill="white"/>
<g id="Group_14" opacity="0.35">
<path id="Vector_43" d="M58.4457 84.0683C58.6304 86.4582 56.8276 88.564 54.4395 88.7506L34.2693 90.3195C31.8812 90.5047 29.7736 88.7054 29.587 86.3133L29.4156 84.0815L28.7554 75.5791C28.5667 73.1892 30.3699 71.0833 32.7598 70.8986L52.9282 69.3297C53.2195 69.3059 53.5124 69.3124 53.8023 69.3492C55.8108 69.6013 57.4466 71.2415 57.6083 73.3341L57.719 74.7519C60.4824 74.4506 68.5325 73.3939 73.5081 70.8773C74.3429 73.0169 74.5742 73.6425 75.6792 76.3075C73.264 78.3806 69.221 81.3305 58.2804 81.9482L58.4457 84.0683Z" fill="#371A45"/>
</g>
<path id="Vector_44" d="M32.7067 87.6212L52.8772 86.0514C55.2649 85.8666 57.0682 83.7603 56.8825 81.3699L56.0474 70.6362C55.8843 68.5432 54.249 66.9025 52.2405 66.6513C51.9503 66.6145 51.6571 66.6077 51.3655 66.6309L31.1976 68.2003C28.805 68.3855 27.004 70.4918 27.1927 72.8817L27.8524 81.3832L28.0252 83.6158C28.2104 86.0062 30.319 87.8059 32.7067 87.6212Z" fill="white"/>
<g id="Group_15" opacity="0.35">
<path id="Vector_45" d="M32.7067 87.6212L52.8772 86.0514C55.2649 85.8667 57.0682 83.7603 56.8825 81.37L56.0474 70.6363C55.8843 68.5433 54.249 66.9026 52.2405 66.6514C51.1541 67.5012 50.4647 68.0448 50.4647 68.0448C50.1546 76.7373 51.0288 83.0953 37.591 83.2491C32.9583 83.3022 29.7656 82.1857 27.8524 81.3833L28.0252 83.6159C28.2104 86.0062 30.319 87.806 32.7067 87.6212Z" fill="#371A45"/>
</g>
<path id="Vector_46" d="M32.3655 88.3885C31.0798 88.3861 29.8422 87.8997 28.8988 87.0262C27.9554 86.1527 27.3754 84.956 27.2742 83.6743L26.4395 72.9388C26.3358 71.5883 26.772 70.2518 27.6525 69.2225C28.5329 68.1932 29.7857 67.5551 31.136 67.4484L51.3066 65.879C52.6567 65.7772 53.9922 66.2141 55.0212 67.0942C56.0501 67.9742 56.6887 69.2259 56.7975 70.5755L57.6326 81.311C57.7362 82.6615 57.3 83.998 56.4196 85.0274C55.5391 86.0567 54.2864 86.6949 52.9362 86.8019L32.7665 88.3712C32.6313 88.3832 32.4975 88.3885 32.3655 88.3885ZM51.7053 67.3708C51.6118 67.3708 51.5179 67.3739 51.4235 67.3815L31.2538 68.9508C30.3016 69.0259 29.418 69.4757 28.797 70.2015C28.176 70.9274 27.8684 71.8699 27.9415 72.8223L28.7762 83.5578C28.8538 84.5092 29.3044 85.3913 30.0297 86.0119C30.755 86.6324 31.6962 86.9411 32.6482 86.8706L52.8174 85.3012C53.7697 85.2261 54.6533 84.7763 55.2744 84.0505C55.8954 83.3247 56.2032 82.3822 56.1302 81.4297L55.2941 70.6943C55.2228 69.7908 54.814 68.9472 54.149 68.3314C53.484 67.7156 52.6116 67.3727 51.7053 67.3708Z" fill="#371A45"/>
<path id="Vector_47" d="M31.8905 87.6049C32.1612 87.639 32.4348 87.6445 32.7066 87.6213L52.8772 86.0515C53.7111 85.9846 54.5082 85.6795 55.1736 85.1724C55.839 84.6654 56.3447 83.9778 56.6304 83.1915C56.8443 82.6097 56.9292 81.9884 56.8794 81.3705L56.5104 76.6018L56.3885 75.028L56.0469 70.6363C55.8613 68.2438 53.7527 66.4458 51.365 66.631L47.0066 66.9713C49.0447 67.1928 50.7128 68.8455 50.8785 70.9589L51.3314 76.7569L51.7146 81.6957C51.8998 84.083 50.097 86.1919 47.7097 86.3771L31.8905 87.6049Z" fill="white"/>
<g id="Group_16" opacity="0.35">
<path id="Vector_48" d="M31.8905 87.6049C32.1612 87.6391 32.4348 87.6446 32.7066 87.6213L52.8772 86.0516C55.2649 85.8668 57.0682 83.7605 56.8794 81.3706L56.3885 75.0281C55.9685 76.1885 55.1639 77.6346 53.7168 77.8925C52.9228 78.036 52.0908 77.5212 51.3314 76.7574L51.7146 81.6962C51.8998 84.0835 50.097 86.1924 47.7097 86.3776L31.8905 87.6049Z" fill="#371A45"/>
</g>
<path id="Vector_49" d="M32.3739 88.3886C32.1814 88.3887 31.9891 88.3772 31.7979 88.3541L31.8298 86.8547L47.6499 85.6252C48.6011 85.5481 49.4831 85.0978 50.1033 84.3726C50.7236 83.6474 51.0317 82.7062 50.9605 81.7546L50.1253 71.0187C50.0592 70.1821 49.7033 69.3947 49.1189 68.7923C48.5346 68.19 47.7584 67.8103 46.9242 67.7187L46.9477 66.2185L51.3043 65.8787C52.6549 65.7771 53.9908 66.2145 55.0197 67.0952C56.0487 67.9759 56.6871 69.2282 56.7952 70.5783L57.6304 81.3124C57.7328 82.6628 57.2962 83.9987 56.416 85.0278C55.5358 86.057 54.2838 86.6955 52.9339 86.8038L32.7629 88.3722C32.6353 88.3829 32.5046 88.3886 32.3739 88.3886ZM49.945 67.4963C50.9239 68.3724 51.527 69.5924 51.6287 70.9022L52.4638 81.6372C52.5172 82.3061 52.4373 82.979 52.2287 83.6168C52.0201 84.2546 51.6869 84.8447 51.2485 85.3528C51.2268 85.3785 51.2042 85.4033 51.1829 85.4281L52.8183 85.3014C53.7694 85.2238 54.6513 84.7732 55.2715 84.0479C55.8917 83.3226 56.1999 82.3815 56.1289 81.4299L55.2941 70.6944C55.2169 69.7428 54.7664 68.8604 54.041 68.2397C53.3157 67.619 52.3743 67.3104 51.4222 67.3811L49.945 67.4963Z" fill="#371A45"/>
<path id="Vector_50" d="M43.35 77.0337C43.3832 77.4325 44.2086 80.5866 44.2086 80.5866L46.4683 80.3979C48.0248 80.2676 49.1519 78.5508 48.9858 76.5623C48.8196 74.5738 47.4231 73.0683 45.8666 73.1985L43.607 73.3873C43.607 73.3873 43.2959 76.3877 43.35 77.0337Z" fill="#22A7F0"/>
<g id="Group_17" opacity="0.35">
<path id="Vector_51" d="M43.35 77.0337C43.3832 77.4325 44.2086 80.5866 44.2086 80.5866L46.4683 80.3979C48.0248 80.2676 49.1519 78.5508 48.9858 76.5623C48.8196 74.5738 47.4231 73.0683 45.8666 73.1985L43.607 73.3873C43.607 73.3873 43.2959 76.3877 43.35 77.0337Z" fill="#371A45"/>
</g>
<path id="Vector_52" d="M43.7824 81.1893L43.6619 80.7299C43.4656 79.9767 42.8201 77.4955 42.7868 77.0808C42.7301 76.4011 43.0124 73.6417 43.0447 73.3294L43.093 72.8632L45.8205 72.6355C46.751 72.5575 47.653 72.9363 48.3628 73.702C49.0376 74.4295 49.459 75.4299 49.5498 76.5154C49.7416 78.811 48.381 80.8052 46.5166 80.9612L43.7824 81.1893ZM43.9153 76.986C43.9379 77.2053 44.2822 78.6067 44.638 79.9842L46.4244 79.8349C47.6677 79.7308 48.5657 78.2842 48.4257 76.6098C48.3557 75.7733 48.0398 75.0148 47.5365 74.4702C47.0677 73.9652 46.4913 73.7135 45.9171 73.7613L44.1245 73.9111C44.0106 75.0586 43.8817 76.6067 43.9131 76.986H43.9153Z" fill="#371A45"/>
<path id="Vector_53" d="M44.2131 80.5832C45.7696 80.4531 46.8966 78.7359 46.7304 76.7478C46.5641 74.7597 45.1676 73.2536 43.6111 73.3837C42.0546 73.5139 40.9276 75.231 41.0939 77.2191C41.2601 79.2072 42.6567 80.7134 44.2131 80.5832Z" fill="#22A7F0"/>
<g id="Group_18" opacity="0.35">
<path id="Vector_54" d="M46.7261 76.752C46.8932 78.7391 45.7656 80.4573 44.2095 80.5876C42.6535 80.7179 41.2547 79.211 41.0899 77.2203C41.0671 76.9576 41.0679 76.6933 41.0926 76.4308C41.6074 77.7626 42.7195 78.6496 43.9282 78.5468C45.2724 78.4343 46.2981 77.1383 46.4421 75.5034C46.5955 75.904 46.6911 76.3244 46.7261 76.752Z" fill="#371A45"/>
</g>
<path id="Vector_55" d="M46.7261 76.7518C46.7379 76.8855 46.7426 77.0196 46.7403 77.1537C46.3012 75.622 45.101 74.5631 43.7842 74.6725C42.334 74.7953 41.2543 76.2946 41.2534 78.1081C41.1698 77.8188 41.115 77.522 41.0899 77.2219C40.9229 75.2352 42.0505 73.517 43.6065 73.3868C45.1626 73.2565 46.5591 74.7629 46.7261 76.7518Z" fill="white"/>
<path id="Vector_56" d="M44.0239 81.1596C42.2543 81.1596 40.7102 79.4698 40.5263 77.2699C40.4377 76.1831 40.6854 75.1277 41.2299 74.2983C41.8028 73.4255 42.6304 72.9018 43.56 72.8242C45.4266 72.6678 47.0979 74.4091 47.2893 76.7041C47.3801 77.7914 47.1302 78.8464 46.5857 79.6758C46.0133 80.5491 45.1856 81.0723 44.2556 81.1499C44.1781 81.1565 44.1005 81.1596 44.0239 81.1596ZM41.6526 77.1756C41.7926 78.8499 42.9202 80.1237 44.1617 80.0236C44.7377 79.9753 45.2631 79.6319 45.6411 79.0559C46.0474 78.4356 46.233 77.635 46.163 76.7985C46.023 75.1246 44.8936 73.8468 43.6539 73.9505C43.0779 73.9988 42.5529 74.3422 42.1745 74.9186C41.7682 75.5389 41.5826 76.3395 41.6526 77.1756Z" fill="#371A45"/>
<path id="Vector_57" d="M38.9703 87.6207C38.8304 87.6206 38.6955 87.5687 38.5917 87.4749C38.4879 87.3811 38.4226 87.2521 38.4085 87.1129L37.7439 80.5795C37.7254 80.3962 37.6617 80.2204 37.5586 80.0679C37.4554 79.9153 37.316 79.7907 37.1528 79.7053L35.1475 78.6517C34.8113 78.4769 34.5251 78.2194 34.3158 77.9034C34.1065 77.5875 33.9811 77.2235 33.9512 76.8458L33.2361 68.0496C33.2301 67.9756 33.2387 67.9012 33.2614 67.8306C33.2842 67.76 33.3206 67.6945 33.3686 67.638C33.4167 67.5814 33.4754 67.5349 33.5414 67.501C33.6074 67.4671 33.6794 67.4466 33.7534 67.4406C33.8273 67.4346 33.9018 67.4432 33.9724 67.4659C34.043 67.4886 34.1085 67.5251 34.165 67.5731C34.2216 67.6211 34.2681 67.6798 34.302 67.7459C34.3358 67.8119 34.3564 67.8839 34.3624 67.9579L35.0775 76.754C35.0924 76.9416 35.1546 77.1223 35.2584 77.2792C35.3621 77.4361 35.504 77.5641 35.6708 77.6513L37.6761 78.7044C38.0047 78.8765 38.2855 79.1276 38.4932 79.4349C38.7009 79.7423 38.8291 80.0965 38.8662 80.4656L39.5307 86.9986C39.546 87.1478 39.5013 87.297 39.4066 87.4133C39.3119 87.5296 39.1749 87.6036 39.0257 87.6189C39.0084 87.6198 38.9893 87.6207 38.9703 87.6207Z" fill="#371A45"/>
<path id="Vector_58" d="M72.6357 67.8096C72.6357 67.8096 75.3127 67.7556 76.1204 70.8446C76.6357 72.8141 75.5267 75.0577 75.5267 75.0577C75.5267 75.0577 68.151 79.2088 55.5059 79.2718C55.5059 79.2718 51.4962 75.7436 55.19 72.1517C55.19 72.1517 66.7159 71.1822 72.6357 67.8096Z" fill="white"/>
<g id="Group_19" opacity="0.35">
<path id="Vector_59" d="M75.5272 75.0584C75.5272 75.0584 68.1524 79.2086 55.5059 79.2724C55.5059 79.2724 52.8918 76.972 53.8285 74.1944C53.8334 74.2095 53.8387 74.2241 53.8435 74.2388C54.3708 75.7239 55.8245 76.6845 57.3992 76.6238C68.8621 76.1807 75.49 72.4514 75.49 72.4514C75.751 71.8861 75.9472 71.293 76.0748 70.6836C76.0908 70.7363 76.1067 70.7904 76.1191 70.8449C76.6348 72.8134 75.5272 75.0584 75.5272 75.0584Z" fill="#371A45"/>
</g>
<path id="Vector_60" d="M56.5392 80.0103C56.049 80.011 55.5657 79.8944 55.1297 79.6703C54.6937 79.4463 54.3176 79.1212 54.0327 78.7223C52.5609 76.6598 52.482 74.484 53.8156 72.5965C54.0682 72.2392 54.3941 71.9399 54.7714 71.7183C55.1487 71.4968 55.5689 71.3581 56.0039 71.3116C58.4138 71.0515 66.6605 70.0072 71.6096 67.5035C72.4239 67.0914 73.3566 67.0475 74.1687 67.3838C75.1027 67.7697 76.326 68.6506 76.8493 70.6523C77.1971 71.9815 76.9153 73.3794 76.618 74.3187C76.4874 74.7242 76.2741 75.0983 75.9916 75.4171C75.709 75.736 75.3633 75.9928 74.9764 76.1712C72.6566 77.2482 66.2237 79.7786 56.6136 80.0077L56.5392 80.0103ZM73.0332 68.6678C72.7747 68.6691 72.5202 68.7312 72.2901 68.849C67.2547 71.3967 59.3367 72.4684 56.1661 72.8109C55.9438 72.8341 55.7291 72.9044 55.5361 73.0171C55.3431 73.1298 55.1763 73.2823 55.0469 73.4645C54.0855 74.8269 54.1572 76.3001 55.2596 77.8464C55.4092 78.0549 55.6075 78.2236 55.8372 78.3379C56.067 78.4522 56.3212 78.5086 56.5777 78.5021C65.9047 78.2806 72.1076 75.8437 74.3415 74.8052C74.5393 74.7151 74.7162 74.5849 74.8611 74.4229C75.006 74.2609 75.1157 74.0707 75.1833 73.8641C75.4204 73.1149 75.6499 72.0156 75.3934 71.0342C75.0987 69.9084 74.4935 69.149 73.5945 68.7773C73.4164 68.7045 73.2256 68.6676 73.0332 68.6687V68.6678Z" fill="#371A45"/>
<path id="Vector_61" d="M17.9792 58.9428C17.1232 56.7151 27.0177 53.0629 31.3048 51.77C41.0403 48.8338 43.2016 41.3961 40.0695 37.0518C34.1887 28.8959 13.0288 35.4191 6.78864 41.5401C4.56357 43.7226 -0.256098 49.0833 0.947711 57.5321" fill="white"/>
<g id="Group_20" opacity="0.35">
<path id="Vector_62" d="M31.3057 51.7705C27.3021 52.9752 18.4151 56.2388 17.9459 58.4799C10.008 54.6606 24.2729 50.3895 28.3961 49.2716C36.5237 47.0665 40.7855 43.195 41.2627 39.7971C42.1129 44.0483 39.1993 49.3895 31.3057 51.7705Z" fill="#371A45"/>
</g>
<g id="Group_21" opacity="0.35">
<path id="Vector_63" d="M18.9716 58.931L17.9278 58.6523C17.9272 58.5951 17.9333 58.538 17.9459 58.4822C18.278 58.6533 18.6206 58.8032 18.9716 58.931Z" fill="#371A45"/>
</g>
<path id="Vector_64" d="M17.9792 59.6965C17.8267 59.6966 17.6779 59.6504 17.5523 59.5641C17.4266 59.4778 17.3302 59.3554 17.2756 59.2131C17.1621 58.918 17.0864 58.4449 17.3686 57.8684C18.8932 54.7568 30.5901 51.1985 31.0873 51.0488C35.79 49.6309 39.1311 46.9154 40.2543 43.5995C40.9871 41.4364 40.6973 39.2105 39.4568 37.4927C38.0323 35.5166 35.5197 34.3616 31.9889 34.0603C23.583 33.3421 11.6158 37.8596 7.315 42.0798C2.77092 46.5366 0.879032 51.7001 1.69383 57.4245C1.70776 57.5225 1.70226 57.6222 1.67764 57.7181C1.65302 57.8139 1.60976 57.904 1.55033 57.9831C1.4909 58.0623 1.41646 58.1289 1.33127 58.1793C1.24608 58.2297 1.1518 58.2628 1.05382 58.2767C0.955839 58.2906 0.856071 58.2851 0.760214 58.2605C0.664358 58.2359 0.574291 58.1926 0.495154 58.1332C0.416016 58.0738 0.34936 57.9993 0.29899 57.9142C0.248619 57.829 0.21552 57.7347 0.201585 57.6367C-0.684546 51.4103 1.35356 45.8135 6.26095 41.0009C10.8804 36.4701 23.1816 31.7945 32.1187 32.5574C36.1063 32.8977 38.9862 34.2614 40.6805 36.6097C42.2078 38.728 42.5724 41.4511 41.6818 44.0815C40.4 47.8649 36.6973 50.9296 31.5223 52.49C25.969 54.1648 19.4958 56.9504 18.7217 58.5304C18.6858 58.6039 18.6774 58.6549 18.6823 58.6713C18.7263 58.7854 18.7418 58.9085 18.7275 59.0299C18.7132 59.1514 18.6695 59.2675 18.6003 59.3684C18.5311 59.4692 18.4384 59.5516 18.3301 59.6085C18.2219 59.6655 18.1014 59.6952 17.9792 59.6952V59.6965Z" fill="#371A45"/>
<path id="Vector_65" d="M86.3531 50.9832C86.2316 50.9831 86.1124 50.9496 86.0088 50.8862C77.8369 45.9172 74.7992 33.6952 74.6743 33.176C74.6371 33.0062 74.6679 32.8287 74.76 32.6814C74.8521 32.5341 74.9982 32.4287 75.167 32.3878C75.3359 32.3469 75.5141 32.3738 75.6634 32.4626C75.8127 32.5515 75.9212 32.6952 75.9658 32.8632C75.9955 32.985 79.003 45.0709 86.6991 49.7506C86.8231 49.8259 86.9191 49.9398 86.9723 50.0748C87.0255 50.2098 87.0331 50.3585 86.9939 50.4982C86.9547 50.638 86.8708 50.761 86.7551 50.8486C86.6394 50.9361 86.4982 50.9834 86.3531 50.9832Z" fill="#371A45"/>
<path id="Vector_66" d="M20.0961 57.0484H20.0912C15.7935 57.0183 11.9295 54.8189 9.49533 51.0148C7.15993 47.3657 6.65971 43.0046 8.18474 39.6328C8.22076 39.5533 8.27209 39.4817 8.33579 39.422C8.39949 39.3623 8.47432 39.3158 8.55601 39.2851C8.63769 39.2543 8.72464 39.2399 8.81188 39.2428C8.89912 39.2456 8.98494 39.2656 9.06445 39.3017C9.14396 39.3377 9.2156 39.389 9.27527 39.4527C9.33494 39.5164 9.38149 39.5912 9.41224 39.6729C9.44299 39.7546 9.45736 39.8415 9.45451 39.9288C9.45166 40.016 9.43166 40.1018 9.39564 40.1814C8.05227 43.1472 8.51926 47.0241 10.6145 50.2983C12.8019 53.7166 16.2596 55.6922 20.1006 55.7192C20.2768 55.7198 20.4456 55.7904 20.5698 55.9155C20.6941 56.0405 20.7635 56.2098 20.7629 56.386C20.7623 56.5623 20.6918 56.7311 20.5667 56.8553C20.4417 56.9796 20.2724 57.049 20.0961 57.0484Z" fill="#371A45"/>
<path id="Vector_67" d="M36.3495 104.212C36.2011 104.212 36.057 104.162 35.9402 104.071C35.8233 103.979 35.7405 103.851 35.7049 103.707C34.3044 98.0572 20.0097 95.5051 14.6207 94.9965C14.5338 94.9884 14.4494 94.9632 14.3722 94.9224C14.295 94.8816 14.2267 94.826 14.171 94.7588C14.1153 94.6916 14.0734 94.6141 14.0477 94.5307C14.0219 94.4473 14.0129 94.3597 14.021 94.2728C14.0292 94.1859 14.0544 94.1014 14.0951 94.0243C14.1359 93.9471 14.1915 93.8787 14.2587 93.823C14.3259 93.7673 14.4034 93.7254 14.4868 93.6997C14.5702 93.674 14.6579 93.6649 14.7448 93.6731C15.5742 93.751 35.0815 95.6669 36.9955 103.386C37.0198 103.483 37.0215 103.586 37.0004 103.684C36.9793 103.783 36.936 103.876 36.8738 103.955C36.8116 104.035 36.732 104.099 36.6413 104.143C36.5505 104.187 36.4509 104.21 36.35 104.21L36.3495 104.212Z" fill="#371A45"/>
<path id="Vector_68" d="M65.7948 105.807C65.3641 105.807 64.9649 105.789 64.6025 105.754C64.4271 105.736 64.2659 105.649 64.1544 105.513C64.0428 105.376 63.9901 105.201 64.0077 105.026C64.0253 104.85 64.1119 104.689 64.2484 104.578C64.3849 104.466 64.5601 104.413 64.7354 104.431C69.8909 104.945 82.7013 101.545 83.7709 97.2028C83.7917 97.1181 83.8291 97.0383 83.8809 96.968C83.9326 96.8977 83.9976 96.8383 84.0723 96.7931C84.147 96.748 84.2299 96.718 84.3162 96.7048C84.4025 96.6917 84.4905 96.6957 84.5752 96.7166C84.66 96.7375 84.7398 96.7748 84.8101 96.8266C84.8804 96.8783 84.9398 96.9434 84.985 97.0181C85.0301 97.0928 85.0601 97.1756 85.0733 97.2619C85.0864 97.3482 85.0824 97.4362 85.0615 97.521C84.252 100.806 79.1204 102.941 76.1333 103.921C72.5843 105.086 68.5573 105.807 65.7948 105.807Z" fill="#371A45"/>
<path id="Vector_69" d="M13.1059 110.49C13.2574 110.448 13.3611 110.425 13.4829 110.401C13.6048 110.377 13.716 110.357 13.8329 110.337C14.0647 110.301 14.2959 110.271 14.5255 110.253C14.9821 110.213 15.4405 110.195 15.899 110.202C16.8051 110.22 17.7086 110.308 18.6017 110.462C19.4878 110.619 20.3633 110.817 21.21 111.111C21.4235 111.175 21.6318 111.258 21.8396 111.342C22.0474 111.426 22.2552 111.507 22.4599 111.596C22.8689 111.782 23.2682 111.988 23.6562 112.214C23.202 112.203 22.7616 112.163 22.327 112.119C21.8839 112.091 21.4546 112.037 21.0221 111.998L19.7328 111.882C19.5188 111.866 19.3066 111.837 19.093 111.824L18.4532 111.784C17.6021 111.74 16.7541 111.719 15.9154 111.746C15.4962 111.756 15.0784 111.779 14.6672 111.813C14.4603 111.827 14.2574 111.852 14.0549 111.872L13.7567 111.911C13.6633 111.922 13.552 111.94 13.4909 111.95L13.432 111.96C13.2432 111.988 13.0509 111.943 12.894 111.835C12.7371 111.726 12.6272 111.562 12.5865 111.376C12.5458 111.189 12.5774 110.994 12.6749 110.83C12.7724 110.666 12.9285 110.545 13.1116 110.492L13.1059 110.49Z" fill="#371A45"/>
<path id="Vector_70" d="M77.8316 114.052C78.1417 113.057 78.7824 112.177 79.5365 111.434C80.2937 110.681 81.2144 110.105 82.1865 109.647C82.6831 109.448 83.1816 109.234 83.7022 109.106C83.9609 109.038 84.2184 108.949 84.4824 108.908L85.2737 108.772C85.5396 108.72 85.8054 108.708 86.0712 108.691C86.3371 108.674 86.6029 108.658 86.8688 108.647C87.4004 108.647 87.9277 108.687 88.4545 108.721C88.6433 108.74 88.8179 108.83 88.9436 108.972C89.0693 109.114 89.1367 109.298 89.1324 109.488C89.1281 109.678 89.0524 109.859 88.9204 109.995C88.7884 110.131 88.6098 110.213 88.4204 110.223H88.3406C87.8568 110.23 87.3748 110.213 86.8949 110.211C86.656 110.227 86.417 110.239 86.178 110.249C85.9394 110.252 85.7013 110.27 85.4651 110.304L84.7562 110.39C84.6381 110.402 84.521 110.423 84.4058 110.452L84.0575 110.523C83.5839 110.594 83.1417 110.763 82.6796 110.883C81.7773 111.201 80.915 111.623 80.1098 112.14C79.2695 112.674 78.5035 113.317 77.8316 114.052Z" fill="#371A45"/>
</g>
</svg>
